<?xml version="1.0" encoding="UTF-8"?>
<svg id="Layer_1" data-name="Layer 1" xmlns="http://www.w3.org/2000/svg" viewBox="0 0 34.79 34.79">
  <defs>
    <style>
      .cls-1 {
        fill: #c2b59b;
      }
    </style>
  </defs>
  <path class="cls-1" d="M31.79,23.35c-.07-.7-.18-1.51-.3-2.33.12.81.22,1.63.3,2.33"/>
  <path class="cls-1" d="M33.67,30.06h0c-.06.02-.12.04-.19.06.06-.02.12-.04.19-.06"/>
  <path class="cls-1" d="M32.04,30.58c.1-.45.19-.97.27-1.5-.09.52-.19,1.05-.27,1.5"/>
  <path class="cls-1" d="M30.41,32.44c.34-1.21.46-1.69.6-2.8-.12.65-.31,1.48-.6,2.8"/>
  <path class="cls-1" d="M13.33,18.13c.38-.72.77-1.43,1.11-2.03-.36.6-.74,1.31-1.11,2.03"/>
  <path class="cls-1" d="M12.27,20.26c-.54-.46-1.19-.98-1.85-1.48.65.51,1.3,1.03,1.85,1.48"/>
  <path class="cls-1" d="M10,16.97c.96-.26,1.94-.48,2.94-.65-1,.17-1.98.39-2.94.65"/>
  <path class="cls-1" d="M33.67,32.21h0c-.25.05-.49.11-.72.18.23-.06.46-.12.72-.18"/>
  <path class="cls-1" d="M3.94,27.44c.13,1.29.2,1.83.46,2.88-.12-.65-.25-1.52-.46-2.88"/>
  <path class="cls-1" d="M1.17,25.41h0c.94.3,1.92.69,3.67,1.39-1.76-.72-2.7-1.1-3.67-1.39"/>
  <path class="cls-1" d="M1.17,26.49h0c.65.22,1.49.5,2.77.95-1.2-.48-1.69-.68-2.77-.95"/>
  <path class="cls-1" d="M4.84,26.8c.17,1.83.28,2.82.46,3.75-.17-.89-.27-1.91-.46-3.75"/>
  <path class="cls-1" d="M29.24,33.71h0c.51-1.85.74-2.74.88-3.8-.15.99-.4,1.95-.88,3.8"/>
  <path class="cls-1" d="M1.17,23.45h0c.72.23,1.43.47,2.04.68-.61-.23-1.32-.46-2.04-.68"/>
  <path class="cls-1" d="M3.64,19.52c-.1.68-.18,1.47-.25,2.27.08-.8.17-1.59.25-2.27"/>
  <path class="cls-1" d="M4.42,33.71h.04c-.71-.24-1.26-.4-1.86-.53.56.13,1.11.3,1.82.53"/>
  <path class="cls-1" d="M3.42,31.32c-.44-.14-.95-.27-1.47-.39.52.14,1.03.28,1.47.39"/>
  <path class="cls-1" d="M1.26,27.94c.53.15,1.06.31,1.51.44-.45-.15-.98-.29-1.51-.44"/>
  <path class="cls-1" d="M2.77,28.37c.07.44.18.95.3,1.46-.11-.51-.21-1.03-.3-1.46"/>
  <path class="cls-1" d="M5.14,33.09c-1.18-.44-1.65-.6-2.74-.83.63.18,1.45.43,2.74.83"/>
  <path class="cls-1" d="M33.67,31.32v-.04c-.18.05-.36.11-.57.18.17-.05.36-.09.57-.15"/>
  <path class="cls-1" d="M25.43,26.66c-.07-.45-.18-.98-.3-1.5.1.52.2,1.05.3,1.5"/>
  <path class="cls-1" d="M27.83,24.8c-.37.26-.79.58-1.2.9.42-.32.84-.63,1.2-.9"/>
  <path class="cls-1" d="M26.03,22.68c.43-.33.86-.67,1.22-.96-.38.27-.8.61-1.22.96"/>
  <path class="cls-1" d="M28.73,17.69c-1.63,1.09-2.52,1.69-3.31,2.33.76-.6,1.68-1.23,3.31-2.33"/>
  <path class="cls-1" d="M26.05,16.91c-.55.43-1.16.94-1.77,1.47.61-.52,1.23-1.04,1.77-1.47"/>
  <path class="cls-1" d="M27.83,24.8c-.06-.47-.16-1.01-.27-1.55.1.54.19,1.09.27,1.55"/>
  <path class="cls-1" d="M25.59,21.26c.56-.43,1.32-.98,2.51-1.85-1.16.76-1.64,1.09-2.51,1.85"/>
  <path class="cls-1" d="M29.74,21.69c.19,1.09.26,2.17.41,4.31-.13-2.15-.19-3.16-.41-4.31"/>
  <path class="cls-1" d="M23.95,30.69c-.21-1.99-.32-2.92-.58-3.98.23,1,.35,2,.58,3.98"/>
  <path class="cls-1" d="M30.15,26c-1.57.94-2.41,1.45-3.17,2.02.73-.53,1.6-1.06,3.17-2.02"/>
  <path class="cls-1" d="M22.51,19.97c-.33-.63-.75-1.35-1.18-2.06.42.71.84,1.44,1.18,2.06"/>
  <path class="cls-1" d="M29.18,25.46c-1.11.67-1.57.96-2.41,1.65.54-.38,1.27-.88,2.41-1.65"/>
  <path class="cls-1" d="M24.58,28.97c-.13-1.26-.18-1.75-.46-2.83.12.65.25,1.5.46,2.83"/>
  <path class="cls-1" d="M28.8,22.45c.1.69.21,1.6.37,3.01-.09-1.33-.13-1.86-.37-3.01"/>
  <path class="cls-1" d="M15.64,20.31c.38-.61.9-1.4,1.73-2.66-.84,1.13-1.18,1.61-1.73,2.66"/>
  <path class="cls-1" d="M19.2,22.76c-.25-.42-.56-.89-.88-1.36.31.48.61.96.88,1.36"/>
  <path class="cls-1" d="M19.86,19.17c.61.95,1.09,1.93,2.05,3.87-.95-1.96-1.4-2.88-2.05-3.87"/>
  <path class="cls-1" d="M17.57,25.37c-.25-.4-.56-.84-.87-1.28.31.45.61.9.87,1.28"/>
  <path class="cls-1" d="M16.61,21.46c.29-.47.58-.94.82-1.34-.26.39-.55.86-.82,1.34"/>
  <path class="cls-1" d="M17.32,15.82c-1.2,1.67-1.83,2.56-2.35,3.48.51-.87,1.16-1.79,2.35-3.48"/>
  <path class="cls-1" d="M12.45,8.94h0c.56-.08,1.12-.15,1.69-.21-.57.06-1.13.13-1.69.21"/>
  <path class="cls-1" d="M19.2,22.76c-.26.37-.54.81-.81,1.26.28-.44.57-.88.81-1.26"/>
  <path class="cls-1" d="M17.69,29.67c-.99-1.79-1.45-2.61-2.12-3.51.62.85,1.12,1.73,2.12,3.51"/>
  <path class="cls-1" d="M19.24,20.21c.36.61.82,1.41,1.52,2.67-.6-1.21-.84-1.69-1.52-2.67"/>
  <path class="cls-1" d="M14.45,16.1c-.51.06-1.01.13-1.51.22.5-.08,1-.16,1.51-.22"/>
  <path class="cls-1" d="M21.92,23.04c-1.14,1.42-1.76,2.21-2.28,3,.5-.75,1.14-1.56,2.28-3"/>
  <path class="cls-1" d="M20.77,22.88c-.82,1.03-1.15,1.47-1.71,2.41.38-.55.9-1.28,1.71-2.41"/>
  <path class="cls-1" d="M17.64,27.83c-.61-1.12-.86-1.55-1.54-2.46.37.56.82,1.3,1.54,2.46"/>
  <path class="cls-1" d="M22.51,30.13c-.12-.62-.29-1.33-.47-2.04.18.71.34,1.43.47,2.04"/>
  <path class="cls-1" d="M10.78,29.33c-.95-.82-1.33-1.14-2.27-1.75.53.39,1.21.92,2.27,1.75"/>
  <path class="cls-1" d="M9.37,21.68c.55.43,1.26,1.01,2.36,1.93-.99-.9-1.39-1.25-2.36-1.93"/>
  <path class="cls-1" d="M9.81,27.06c-.36-.28-.8-.59-1.24-.89.44.31.87.63,1.24.89"/>
  <path class="cls-1" d="M7.52,23.76c.08-.54.16-1.07.23-1.53-.09.46-.16.99-.23,1.53"/>
  <path class="cls-1" d="M10.28,24.06c-.1.44-.18.96-.26,1.48.09-.52.18-1.04.26-1.48"/>
  <path class="cls-1" d="M9.01,23.12c.44.33.89.66,1.27.94-.37-.3-.82-.62-1.27-.94"/>
  <path class="cls-1" d="M11.74,23.61c-.36,1.26-.5,1.78-.64,2.87.13-.65.33-1.51.64-2.87"/>
  <path class="cls-1" d="M6.23,23.03c.11-.69.28-1.61.54-3.07-.32,1.35-.44,1.91-.54,3.07"/>
  <path class="cls-1" d="M12.85,23.33c-.53,1.78-.8,2.74-.97,3.69.18-.9.46-1.89.97-3.69"/>
  <path class="cls-1" d="M9.47,20.44c.93.68,1.74,1.4,3.38,2.89-1.64-1.51-2.38-2.19-3.38-2.89"/>
  <path class="cls-1" d="M11.5,31.01c-1.55-1.33-2.26-1.93-3.21-2.54.88.58,1.65,1.23,3.21,2.54"/>
  <path class="cls-1" d="M6.05,18.28c-.44,1.96-.67,3.01-.79,4.04.13-.98.37-2.07.79-4.04Z"/>
  <path class="cls-1" d="M26.97,29.88c.58-.42,1.16-.83,1.66-1.18-.51.34-1.09.75-1.66,1.18"/>
  <path class="cls-1" d="M8.39,30.39c.61.41,1.21.82,1.73,1.18-.5-.37-1.11-.78-1.73-1.18"/>
  <path class="cls-1" d="M16.09,29.68c-.35-.53-.78-1.13-1.22-1.73.44.6.86,1.21,1.22,1.73"/>
  <path class="cls-1" d="M6.66,29.3c.08.61.21,1.31.34,2.02-.13-.7-.25-1.41-.34-2.02Z"/>
  <path class="cls-1" d="M13.2,28.34c.14-.71.29-1.41.43-2.01-.15.6-.3,1.3-.43,2.01"/>
  <path class="cls-1" d="M28.4,30.73c-.1.72-.22,1.45-.32,2.07.12-.62.23-1.34.32-2.07"/>
  <path class="cls-1" d="M20.34,27.8c.4-.6.8-1.19,1.16-1.7-.36.5-.77,1.09-1.16,1.7"/>
  <path class="cls-1" d="M1.17,32.91v.8h3.25c-.71-.24-1.26-.4-1.82-.53-.42-.09-.88-.17-1.43-.26"/>
  <path class="cls-1" d="M17.52,11.47c-5.94.1-11.5,1.68-16.35,4.37v.04c4.85-2.69,10.42-4.27,16.35-4.38,5.8-.1,11.29,1.22,16.15,3.63v-.04c-4.86-2.41-10.35-3.73-16.15-3.63"/>
  <path class="cls-1" d="M17.55,13.36c-5.99.1-11.58,1.79-16.38,4.66v2.98c.8-.53,1.62-1.03,2.47-1.49-.08.68-.17,1.48-.25,2.27-.07.82-.13,1.64-.17,2.34-.61-.21-1.32-.45-2.04-.68v1.96c.98.29,1.91.67,3.67,1.39.19,1.84.3,2.86.46,3.75.18.87.43,1.71.89,3.16h5.4c1.89-.97,4.02-1.53,6.28-1.57,2.44-.04,4.75.53,6.78,1.57h4.57c.49-1.85.73-2.8.88-3.8.12-.9.17-1.92.27-3.77,1.54-.72,2.43-1.14,3.28-1.46v-2.08c-.66.25-1.31.51-1.88.74-.08-.7-.19-1.51-.3-2.33-.12-.79-.26-1.58-.38-2.26.88.41,1.73.86,2.56,1.35v-2.89c-4.8-2.56-10.3-3.97-16.12-3.86M10.01,16.97c.96-.26,1.94-.48,2.94-.65.5-.09,1-.16,1.51-.22-.34.61-.73,1.32-1.11,2.03-.38.74-.75,1.48-1.06,2.12-.55-.45-1.2-.97-1.85-1.48-.64-.49-1.29-.97-1.84-1.38.47-.15.95-.3,1.43-.43M5.07,26.64c.02-2.15.03-3.16.19-4.32.13-1.03.35-2.08.79-4.04,1.68,1,2.59,1.56,3.42,2.16,1,.71,1.74,1.39,3.38,2.89-.51,1.8-.8,2.79-.97,3.68-.18,1.01-.25,2.01-.37,4-1.56-1.32-2.33-1.96-3.21-2.54-.75-.48-1.64-.97-3.23-1.83M12.85,30.4c.08-.62.21-1.35.35-2.07.13-.71.28-1.41.43-2.01.39.47.82,1.05,1.25,1.63.44.59.87,1.2,1.22,1.73-1.12.13-2.21.38-3.25.72M19.22,29.59c.32-.55.72-1.18,1.12-1.8.39-.6.79-1.2,1.16-1.7.19.59.37,1.29.54,1.99.18.71.35,1.43.47,2.04-1.06-.28-2.16-.47-3.29-.54M7.44,33.36c-.15-.61-.3-1.33-.43-2.05-.14-.7-.26-1.41-.34-2.01.53.31,1.13.69,1.73,1.09.61.4,1.22.81,1.73,1.18-.95.51-1.85,1.11-2.68,1.79M28.08,32.79c-.87-.63-1.79-1.18-2.77-1.64.48-.4,1.07-.85,1.66-1.28.57-.43,1.15-.85,1.67-1.18-.05.61-.13,1.32-.23,2.03-.09.73-.2,1.45-.32,2.07M29.74,21.69c.22,1.15.28,2.16.41,4.31-1.57.96-2.44,1.49-3.17,2.02-.83.62-1.56,1.3-3.03,2.67-.23-1.98-.35-2.98-.58-3.98-.22-.89-.56-1.86-1.16-3.63,1.56-1.59,2.27-2.3,3.23-3.06.79-.64,1.68-1.24,3.3-2.33.54,1.94.82,2.97,1,4M26.05,16.91c-.53.44-1.16.95-1.77,1.47-.63.55-1.25,1.1-1.77,1.58-.35-.62-.76-1.35-1.18-2.06-.42-.69-.86-1.38-1.23-1.97,2.04.13,4.04.46,5.95.97M19.86,19.17c.66.99,1.11,1.91,2.05,3.87-1.13,1.44-1.77,2.25-2.28,3-.58.89-1.03,1.79-1.95,3.63-1.01-1.78-1.5-2.66-2.12-3.51-.54-.73-1.22-1.51-2.43-2.89.84-2.01,1.24-2.95,1.84-3.97.52-.92,1.15-1.81,2.35-3.48,1.29,1.6,1.97,2.46,2.54,3.35"/>
  <path class="cls-1" d="M29.47,33.71h4.2v-1.5c-.26.06-.49.12-.72.18-.94.27-1.82.63-3.48,1.32"/>
  <path class="cls-1" d="M17.38,3.51c-5.76.1-11.23,1.33-16.21,3.47v1.38c4.97-2.21,10.45-3.49,16.23-3.59,5.75-.1,11.25.97,16.27,2.99v-1.36c-5.05-1.96-10.55-2.99-16.29-2.89"/>
  <path class="cls-1" d="M17.42,5.45c-5.81.1-11.3,1.42-16.26,3.71v2.7c4.92-2.45,10.44-3.87,16.3-3.97,5.77-.1,11.26,1.09,16.21,3.31v-2.65c-5-2.08-10.49-3.19-16.25-3.09"/>
  <path class="cls-1" d="M17.36,2.3c5.74-.1,11.24.9,16.31,2.81V1.2H1.17v4.47c4.99-2.08,10.45-3.27,16.19-3.37"/>
  <path class="cls-1" d="M11.6,33.71h.3l-.02-.04c.18-.09.37-.18.56-.26l.13.29h.85l-.22-.6c.19-.07.39-.14.58-.2l.26.8h.8l-.27-1.03c.2-.05.41-.1.61-.14l.25,1.17h.77l-.2-1.32c.21-.03.42-.06.63-.08l.15,1.4h.77l-.07-1.46c.13,0,.27-.01.4-.01.08,0,.17,0,.25,0v1.48h.77l.09-1.45c.21.01.43.03.64.05l-.15,1.4h.76l.21-1.29c.21.03.41.07.62.11l-.25,1.17h.78l.27-.98c.2.05.4.11.59.17l-.26.81h.82l.2-.54c.19.07.38.15.57.23l-.13.3h.99c-2.03-1.04-4.34-1.61-6.78-1.57-2.26.04-4.4.6-6.28,1.57"/>
  <path class="cls-1" d="M17.47,8.42c-5.86.1-11.38,1.52-16.3,3.97v3.45c4.85-2.69,10.41-4.27,16.35-4.37,5.8-.1,11.29,1.22,16.15,3.63v-3.38c-4.94-2.21-10.43-3.41-16.21-3.31M2.73,14.94l-1.26-2.59c.49-.24.98-.47,1.48-.69l1.15,2.64c-.46.2-.92.41-1.37.63M5.97,13.56l-1-2.7c.51-.19,1.03-.37,1.56-.54l.88,2.74c-.48.16-.96.32-1.44.5M9.35,12.5l-.72-2.79c.54-.14,1.08-.26,1.62-.38l.6,2.82c-.5.11-1.01.22-1.5.35M14.44,11.58c-.52.05-1.04.12-1.56.2l-.43-2.85c.56-.08,1.12-.15,1.69-.21l.3,2.86ZM33.23,11.63l-1.14,2.64c-.46-.2-.93-.39-1.4-.57l1.03-2.69c.51.19,1.01.4,1.51.62M29.67,10.3l-.87,2.74c-.48-.15-.97-.3-1.46-.43l.75-2.78c.53.14,1.06.3,1.58.47M25.95,9.32l-.59,2.82c-.5-.11-1.01-.2-1.52-.28l.47-2.84c.55.09,1.1.19,1.65.31M22.1,8.72l-.3,2.86c-.52-.05-1.04-.1-1.57-.13l.17-2.87c.57.03,1.14.08,1.7.14M18.13,11.39c-.2,0-.41,0-.61,0-.33,0-.66.02-.99.03l-.13-2.87c.36-.02.71-.03,1.07-.03.22,0,.44,0,.66,0v2.88Z"/>
  <path class="cls-1" d="M5.14,33.09c-.36-1.3-.59-2.12-.75-2.76-.26-1.06-.33-1.59-.46-2.88-1.28-.45-2.12-.73-2.77-.94v1.41s.06.02.09.03c.53.14,1.06.29,1.51.44.09.44.2.95.3,1.46.12.52.25,1.04.35,1.48-.44-.11-.96-.26-1.47-.39-.27-.06-.53-.13-.79-.19v1.27c.5.1.9.17,1.24.24,1.09.23,1.56.4,2.74.83"/>
  <path class="cls-1" d="M10.78,29.33c.14-1.34.23-2.2.31-2.85.14-1.09.28-1.61.64-2.87-1.11-.91-1.81-1.49-2.36-1.93-.91-.71-1.41-1.01-2.6-1.72-.27,1.45-.44,2.37-.54,3.07-.18,1.16-.2,1.69-.21,3.02,1.18.72,1.94,1.17,2.49,1.52.94.6,1.32.92,2.27,1.75M7.33,25.33c.04-.47.11-1.02.19-1.56.07-.54.14-1.08.23-1.53.39.25.83.57,1.27.89.45.32.9.64,1.27.94-.07.45-.17.96-.25,1.48-.08.53-.15,1.06-.22,1.51-.38-.26-.81-.58-1.24-.89-.43-.29-.87-.58-1.24-.84"/>
  <path class="cls-1" d="M15.64,20.31c-.63,1.01-.84,1.5-1.37,2.74.87,1.09,1.43,1.79,1.83,2.32.68.9.93,1.34,1.54,2.46.66-1.2,1.08-1.96,1.42-2.54.56-.94.89-1.38,1.71-2.41-.71-1.26-1.16-2.06-1.53-2.67-.6-1-.97-1.47-1.87-2.56-.83,1.26-1.35,2.05-1.73,2.66M18.39,24.02c-.29.47-.57.94-.82,1.35-.26-.38-.57-.84-.87-1.28-.31-.43-.62-.86-.88-1.23.22-.43.51-.91.8-1.39.28-.48.56-.95.82-1.34.28.37.58.82.88,1.28.32.47.64.94.88,1.36-.24.38-.53.82-.81,1.26"/>
  <path class="cls-1" d="M25.59,21.26c-.94.72-1.32,1.09-2.26,2.05.39,1.34.63,2.19.79,2.83.28,1.08.33,1.58.46,2.83,1.02-.88,1.67-1.45,2.18-1.86.84-.69,1.3-.98,2.41-1.65-.17-1.42-.27-2.32-.37-3.01-.17-1.15-.32-1.71-.7-3.03-1.2.87-1.95,1.42-2.51,1.85M26.63,25.7c-.42.33-.84.67-1.2.95-.09-.45-.19-.97-.3-1.5-.11-.51-.24-1.03-.33-1.47.35-.32.79-.66,1.22-1,.42-.34.84-.68,1.22-.96.11.45.21.99.31,1.52.11.54.21,1.08.27,1.55-.36.27-.78.58-1.2.9"/>
  <path class="cls-1" d="M31.02,29.64c-.14,1.11-.27,1.58-.6,2.8,1.26-.47,2.06-.76,2.69-.97.21-.07.39-.13.57-.18v-1.23c-.06.02-.12.04-.19.06-.51.16-1.01.33-1.45.47.08-.45.18-.97.27-1.5.08-.52.16-1.03.23-1.48.34-.13.73-.27,1.13-.4v-1.44c-.82.27-1.32.5-2.35.97-.14,1.38-.22,2.25-.31,2.9"/>
  <path class="cls-1" d="M0,0v34.79h34.79V0H0ZM33.62,33.59H1.17V1.2h32.46v32.39Z"/>
</svg>