<?xml version="1.0" encoding="UTF-8"?>
<svg id="Layer_1" xmlns="http://www.w3.org/2000/svg" version="1.1" viewBox="0 0 34.8 34.8">
  <!-- Generator: Adobe Illustrator 30.1.0, SVG Export Plug-In . SVG Version: 2.1.1 Build 136)  -->
  <defs>
    <style>
      .st0 {
        fill: #fde37f;
      }
    </style>
  </defs>
  <path class="st0" d="M1,26.9c1.8.1,3.9-.2,5.7,0,.7,0,1.1.6,1.2,1.2.1,1.2.1,4.2,0,5.4,0,.9-1,1.4-1.8,1.1-2.1-1.7-3.9-3.8-5.8-5.7-.6-.8-.2-1.9.7-2.1"/>
  <path class="st0" d="M1.1,18c1.8.1,3.9-.2,5.6,0,.7,0,1.1.6,1.2,1.2.1,1.2.1,4.2,0,5.4-.1,1-1.2,1.6-2.1,1L.3,20.1c-.6-.8-.1-1.9.8-2.1"/>
  <path class="st0" d="M9.9,18c1.8.1,3.9-.2,5.7,0,.8,0,1.1.7,1.2,1.4.1,1.2.1,3.8,0,5-.1,1.2-1,1.8-2.1,1.2l-5.5-5.5c-.6-.8-.2-1.8.7-2.1"/>
  <path class="st0" d="M9.9,26.9c1.8.1,3.9-.2,5.7,0,.8,0,1.1.7,1.2,1.4.1,1.2.1,3.8,0,5-.1,1.2-1,1.8-2.1,1.2l-5.5-5.5c-.6-.8-.2-1.9.7-2.1"/>
  <path class="st0" d="M18.9,26.9c1.8.1,3.9-.2,5.7,0,.7,0,1.1.6,1.2,1.2.1,1.2.1,4.2,0,5.4,0,.9-1,1.4-1.8,1.1-2.1-1.7-3.9-3.8-5.8-5.7-.6-.8-.2-1.9.7-2.1"/>
  <path class="st0" d="M19,18c1.8.1,3.9-.2,5.6,0,.7,0,1.1.6,1.2,1.2.1,1.2.1,4.2,0,5.4-.1,1-1.2,1.6-2.1,1l-5.5-5.5c-.6-.8-.1-1.9.8-2.1"/>
  <path class="st0" d="M27.8,18c1.8.1,3.9-.2,5.7,0,.8,0,1.1.7,1.2,1.4.1,1.2.1,3.8,0,5-.1,1.2-1,1.8-2.1,1.2l-5.5-5.5c-.6-.8-.2-1.8.7-2.1"/>
  <path class="st0" d="M27.8,26.9c1.8.1,3.9-.2,5.7,0,.8,0,1.1.7,1.2,1.4.1,1.2.1,3.8,0,5-.1,1.2-1,1.8-2.1,1.2l-5.5-5.5c-.6-.8-.2-1.9.7-2.1"/>
  <path class="st0" d="M1,9c1.8.1,3.9-.2,5.7,0,.7,0,1.1.6,1.2,1.2.1,1.2.1,4.2,0,5.4,0,.9-1,1.4-1.8,1.1-2.1-1.7-3.9-3.8-5.8-5.7-.6-.8-.2-1.9.7-2.1"/>
  <path class="st0" d="M1.1,0c1.8.1,3.9-.2,5.6,0,.7,0,1.1.6,1.2,1.2.1,1.2.1,4.2,0,5.4-.1,1-1.2,1.6-2.1,1L.3,2.2C-.3,1.4.2.3,1.1,0"/>
  <path class="st0" d="M9.9,0c1.8.1,3.9-.2,5.7,0,.8,0,1.1.7,1.2,1.4.1,1.2.1,3.8,0,5-.1,1.2-1,1.8-2.1,1.2l-5.5-5.5c-.6-.8-.2-1.8.7-2.1"/>
  <path class="st0" d="M9.9,9c1.8.1,3.9-.2,5.7,0,.8,0,1.1.7,1.2,1.4.1,1.2.1,3.8,0,5-.1,1.2-1,1.8-2.1,1.2l-5.5-5.5c-.6-.8-.2-1.9.7-2.1"/>
  <path class="st0" d="M18.9,9c1.8.1,3.9-.2,5.7,0,.7,0,1.1.6,1.2,1.2.1,1.2.1,4.2,0,5.4,0,.9-1,1.4-1.8,1.1-2.1-1.7-3.9-3.8-5.8-5.7-.6-.8-.2-1.9.7-2.1"/>
  <path class="st0" d="M19,0c1.8.1,3.9-.2,5.6,0,.7,0,1.1.6,1.2,1.2.1,1.2.1,4.2,0,5.4-.1,1-1.2,1.6-2.1,1l-5.5-5.5c-.6-.8-.1-1.9.8-2.1"/>
  <path class="st0" d="M27.8,0c1.8.1,3.9-.2,5.7,0,.8,0,1.1.7,1.2,1.4.1,1.2.1,3.8,0,5-.1,1.2-1,1.8-2.1,1.2l-5.5-5.5c-.6-.8-.2-1.8.7-2.1"/>
  <path class="st0" d="M27.8,9c1.8.1,3.9-.2,5.7,0,.8,0,1.1.7,1.2,1.4.1,1.2.1,3.8,0,5-.1,1.2-1,1.8-2.1,1.2l-5.5-5.5c-.6-.8-.2-1.9.7-2.1"/>
</svg>