<?xml version="1.0" encoding="UTF-8"?>
<svg id="Layer_1" data-name="Layer 1" xmlns="http://www.w3.org/2000/svg" viewBox="0 0 34.79 34.79">
  <defs>
    <style>
      .cls-1 {
        fill: #3b91ce;
      }
    </style>
  </defs>
  <polygon class="cls-1" points="27.47 16.35 27.46 16.35 27.46 16.35 27.47 16.35"/>
  <polygon class="cls-1" points="27.47 13.06 27.46 13.06 27.46 13.07 27.47 13.06"/>
  <polygon class="cls-1" points="27.47 9.78 27.46 9.78 27.46 9.78 27.47 9.78"/>
  <polygon class="cls-1" points="27.47 6.5 27.46 6.5 27.46 6.5 27.47 6.5"/>
  <rect class="cls-1" x="7.43" y="18.05" width="2.77" height="0" transform="translate(-7.55 6.41) rotate(-28.55)"/>
  <polygon class="cls-1" points="12.52 21.34 12.52 21.34 12.65 21.27 12.52 21.34"/>
  <path class="cls-1" d="M20.33,19.77l1.96-1.07-1.96,1.07Z"/>
  <rect class="cls-1" x="20.2" y="20.81" width="2.25" height="0"/>
  <polygon class="cls-1" points="19.85 12.09 17.42 10.77 17.4 10.78 19.83 12.1 19.85 12.09"/>
  <polygon class="cls-1" points="14.96 25.33 17.4 26.65 17.4 26.65 17.41 26.66 19.85 25.33 20.33 25.07 20.33 25.06 19.85 25.32 19.84 25.31 17.4 26.64 14.97 25.32 14.96 25.32 14.51 25.07 14.51 25.09 14.96 25.33 14.96 25.33"/>
  <polygon class="cls-1" points="19.85 14.73 17.42 13.41 17.4 13.42 19.83 14.74 19.85 14.73"/>
  <path class="cls-1" d="M20,9.38l-.13.07.13-.07Z"/>
  <polygon class="cls-1" points="14.97 20.02 14.97 17.37 14.95 17.38 14.95 20.02 14.95 20.02 14.95 20.02 14.95 22.66 14.96 22.67 14.96 22.66 14.97 22.67 14.97 20.02"/>
  <path class="cls-1" d="M17.41,21.35l.27-.15-.27.15Z"/>
  <rect class="cls-1" x="14.78" y="14.08" width="2.77" height="0" transform="translate(-4.76 9.44) rotate(-28.55)"/>
  <polygon class="cls-1" points="17.41 21.35 14.97 20.02 17.41 18.69 14.97 20.02 17.41 21.35 17.41 21.35"/>
  <polygon class="cls-1" points="19.85 20.02 19.85 20.02 19.85 20.02 19.85 22.67 19.87 22.66 19.87 20.02 19.87 17.38 19.86 17.38 19.86 17.37 19.85 17.37 19.85 20.02"/>
  <polygon class="cls-1" points="19.87 20.02 20.33 20.27 20.33 20.27 19.87 20.02 20.33 19.77 19.87 20.02"/>
  <polygon class="cls-1" points="19.85 20.02 19.85 20.02 19.85 20.02 19.85 20.02"/>
  <polygon class="cls-1" points="19.85 20.02 17.68 21.2 17.41 21.35 19.85 22.67 19.85 22.67 19.85 22.67 19.85 20.02"/>
  <polygon class="cls-1" points="17.41 18.69 19.85 20.02 19.85 20.02 19.85 17.37 17.41 18.69"/>
  <polygon class="cls-1" points="14.97 20.02 14.97 22.67 14.97 22.67 17.41 21.35 14.97 20.02"/>
  <polygon class="cls-1" points="14.97 17.37 14.97 17.37 14.97 20.02 17.41 18.69 14.97 17.37"/>
  <polygon class="cls-1" points="22.29 18.7 20.33 19.77 19.87 20.02 20.33 20.27 22.31 21.34 22.31 21.34 22.31 21.34 22.31 21.34 22.31 18.69 22.3 18.7 22.3 18.7 22.29 18.7"/>
  <polygon class="cls-1" points="22.31 18.69 22.3 18.69 22.3 18.7 22.31 18.69"/>
  <polygon class="cls-1" points="12.51 21.35 12.52 21.35 12.52 21.34 12.51 21.35"/>
  <polygon class="cls-1" points="12.52 21.34 12.65 21.27 14.95 20.02 14.95 20.02 14.95 20.02 12.53 18.7 12.51 18.7 12.51 21.35 12.52 21.34 12.52 21.34 12.52 21.34"/>
  <polygon class="cls-1" points="14.96 22.67 14.95 22.66 12.52 21.34 12.52 21.34 12.52 21.34 12.52 21.35 12.52 23.99 12.53 23.99 12.52 23.99 14.96 22.67"/>
  <polygon class="cls-1" points="12.5 21.34 12.5 21.34 10.08 20.02 10.07 20.03 10.07 22.67 10.68 22.33 12.5 21.34"/>
  <polygon class="cls-1" points="14.96 25.32 14.97 25.32 14.96 25.31 14.96 25.32"/>
  <polygon class="cls-1" points="17.4 23.99 14.97 22.67 14.97 22.67 14.96 22.66 14.96 25.31 17.4 23.99"/>
  <polygon class="cls-1" points="19.83 14.74 19.83 14.74 17.42 16.05 19.85 17.37 19.86 17.38 19.86 14.74 19.86 14.74 19.86 14.74 19.85 14.73 19.83 14.74"/>
  <polygon class="cls-1" points="19.86 17.38 19.86 17.38 19.86 17.38 19.87 17.38 22.29 18.7 22.3 18.7 22.3 18.7 22.3 18.69 22.3 16.06 22.28 16.06 19.86 17.38"/>
  <polygon class="cls-1" points="22.3 16.05 22.3 16.05 22.3 16.05 22.3 16.05"/>
  <polygon class="cls-1" points="24.75 20.02 24.76 20.02 24.76 17.39 24.75 17.38 22.32 18.7 22.32 18.7 24.74 20.02 24.75 20.02"/>
  <polygon class="cls-1" points="12.51 18.71 12.53 18.7 14.94 17.39 12.51 16.06 12.5 16.07 12.5 18.7 12.5 18.71 12.51 18.71"/>
  <polygon class="cls-1" points="17.38 16.06 14.95 14.74 14.95 14.74 14.95 14.74 14.94 14.74 14.94 17.39 14.95 17.38 14.97 17.37 14.97 17.37 17.38 16.06"/>
  <rect class="cls-1" x="13.72" y="15.34" width="0" height="2.77"/>
  <polygon class="cls-1" points="10.04 17.39 10.04 20.04 10.07 20.03 10.08 20.02 12.48 18.71 12.48 18.71 10.05 17.39 10.04 17.39"/>
  <polygon class="cls-1" points="10.03 20.03 7.61 18.71 7.6 18.71 7.59 18.71 7.59 21.36 7.63 21.34 10.03 20.03 10.03 20.03"/>
  <polygon class="cls-1" points="24.75 20.02 24.74 20.02 22.31 21.34 22.31 21.34 24.74 22.67 24.75 22.67 24.75 20.02"/>
  <polygon class="cls-1" points="19.85 22.67 19.85 22.67 19.85 22.67 17.41 23.99 19.84 25.31 19.84 25.31 19.85 25.32 19.85 22.67 19.85 22.67"/>
  <polygon class="cls-1" points="19.87 22.66 19.85 22.67 19.85 22.67 19.85 22.67 19.85 22.67 22.29 23.99 22.29 21.36 22.29 21.34 19.87 22.66"/>
  <polygon class="cls-1" points="27.18 18.7 24.76 20.02 24.76 20.02 27.18 21.34 27.2 21.35 27.2 18.71 27.18 18.7"/>
  <polygon class="cls-1" points="19.83 12.1 17.42 13.41 19.85 14.73 19.86 14.74 19.86 14.72 19.86 12.1 19.86 12.1 19.86 12.1 19.85 12.09 19.83 12.1 19.83 12.1"/>
  <polygon class="cls-1" points="19.86 14.74 19.86 14.74 19.86 14.74 19.86 14.74 22.28 16.06 22.3 16.06 22.3 16.05 22.3 16.05 22.3 13.42 22.28 13.42 19.86 14.74"/>
  <polygon class="cls-1" points="22.3 13.41 22.3 13.41 22.3 13.41 22.3 13.41"/>
  <polygon class="cls-1" points="24.76 17.39 24.76 17.38 24.76 17.38 24.76 17.38 24.76 17.37 24.76 14.75 24.75 14.74 22.32 16.06 22.32 16.06 24.75 17.38 24.76 17.39"/>
  <polygon class="cls-1" points="24.76 17.39 24.76 17.39 24.76 17.39 24.76 17.39"/>
  <polygon class="cls-1" points="27.18 16.06 24.76 17.38 24.76 17.38 24.76 17.38 24.76 17.39 27.18 18.7 27.2 18.71 27.2 18.7 27.2 18.7 27.2 18.7 27.2 16.07 27.18 16.06"/>
  <polygon class="cls-1" points="22.31 24.01 22.31 24.01 24.74 25.33 24.75 25.33 24.75 22.68 22.31 24.01"/>
  <polygon class="cls-1" points="19.85 25.33 17.41 26.66 19.84 27.98 19.84 27.98 19.85 27.99 19.85 25.33 19.85 25.33"/>
  <polygon class="cls-1" points="19.85 25.33 19.85 25.33 19.85 25.33 22.29 26.66 22.29 24.01 20.33 25.07 19.85 25.33"/>
  <polygon class="cls-1" points="24.76 22.69 27.18 24.01 27.2 24.01 27.2 21.36 24.76 22.69 24.76 22.69"/>
  <polygon class="cls-1" points="14.96 25.33 14.51 25.09 12.52 24 12.52 26.66 12.53 26.66 12.52 26.66 14.96 25.33"/>
  <polygon class="cls-1" points="10.07 25.33 12.5 24 12.5 24 10.07 22.68 10.07 25.33"/>
  <polygon class="cls-1" points="17.4 26.65 14.96 25.33 14.96 27.98 14.97 27.98 17.4 26.65 17.4 26.65"/>
  <polygon class="cls-1" points="10.03 22.7 10.03 22.7 7.59 21.37 7.59 24.02 7.63 24 10.03 22.7"/>
  <polygon class="cls-1" points="12.51 16.06 14.94 14.74 12.51 13.42 12.5 13.43 12.5 16.06 12.5 16.07 12.51 16.06"/>
  <polygon class="cls-1" points="17.38 13.42 14.95 12.1 14.94 12.1 14.94 14.73 14.94 14.74 14.95 14.74 17.38 13.42"/>
  <polygon class="cls-1" points="10.06 14.75 10.04 14.75 10.04 17.39 10.04 17.39 10.05 17.39 12.48 16.07 12.48 16.07 12.48 16.07 10.06 14.75"/>
  <polygon class="cls-1" points="10.03 17.39 10.03 17.39 7.61 16.07 7.59 16.07 7.59 18.71 7.59 18.71 7.6 18.71 10.03 17.39"/>
  <polygon class="cls-1" points="17.42 10.77 19.85 12.09 19.86 12.1 19.86 12.08 19.86 9.46 19.86 9.46 19.86 9.46 19.85 9.45 19.83 9.46 19.83 9.46 17.42 10.77"/>
  <polygon class="cls-1" points="19.86 12.1 19.86 12.1 19.86 12.1 19.86 12.1 22.28 13.42 22.3 13.42 22.3 13.41 22.3 13.41 22.3 10.78 22.28 10.78 19.86 12.1"/>
  <polygon class="cls-1" points="22.3 10.77 22.3 10.77 22.3 10.77 22.3 10.77"/>
  <path class="cls-1" d="M19.87,9.45h-.01s.01,0,.01,0Z"/>
  <polygon class="cls-1" points="24.76 14.75 24.76 14.75 24.76 14.74 24.76 14.74 24.76 14.73 24.76 12.11 24.75 12.1 22.32 13.42 22.32 13.42 24.75 14.74 24.76 14.75"/>
  <polygon class="cls-1" points="24.76 14.75 24.76 14.74 24.76 14.75 24.76 14.75"/>
  <polygon class="cls-1" points="27.18 13.42 24.76 14.74 24.76 14.74 24.76 14.74 24.76 14.75 27.18 16.06 27.2 16.07 27.2 16.06 27.2 16.06 27.2 16.06 27.2 13.43 27.18 13.42"/>
  <polygon class="cls-1" points="14.94 12.1 12.51 10.78 12.5 10.79 12.5 13.41 12.5 13.43 12.51 13.42 14.94 12.1"/>
  <polygon class="cls-1" points="14.94 12.1 14.95 12.1 17.38 10.78 14.95 9.46 14.94 9.46 14.94 12.09 14.94 12.1"/>
  <polygon class="cls-1" points="10.06 12.11 10.04 12.12 10.04 14.74 10.04 14.75 10.06 14.75 12.48 13.43 12.48 13.43 12.48 13.43 10.06 12.11"/>
  <polygon class="cls-1" points="7.61 16.07 10.03 14.75 10.03 14.75 7.61 13.43 7.59 13.44 7.59 16.06 7.59 16.07 7.61 16.07"/>
  <polygon class="cls-1" points="19.86 9.44 19.86 6.8 17.42 8.13 19.85 9.45 19.86 9.46 19.86 9.44"/>
  <polygon class="cls-1" points="20 9.38 19.87 9.45 19.86 9.46 19.86 9.46 19.86 9.46 22.29 10.78 22.3 10.78 22.3 10.77 22.3 10.77 22.3 8.13 20 9.38"/>
  <polygon class="cls-1" points="22.32 10.78 22.32 10.78 24.75 12.1 24.76 12.11 24.76 12.11 24.76 12.11 24.76 12.1 24.76 12.09 24.76 9.46 24.76 9.46 22.32 10.78"/>
  <polygon class="cls-1" points="24.76 12.11 24.76 12.11 24.76 12.11 24.76 12.11"/>
  <polygon class="cls-1" points="24.76 12.1 24.76 12.11 24.76 12.11 24.76 12.11 27.18 13.42 27.2 13.43 27.2 13.42 27.2 13.42 27.2 13.42 27.2 10.78 27.2 10.78 27.2 10.78 27.19 10.78 24.76 12.1"/>
  <polygon class="cls-1" points="14.94 9.46 12.5 8.14 12.5 8.14 12.5 10.77 12.5 10.79 12.51 10.78 14.94 9.46"/>
  <polyline class="cls-1" points="12.5 8.14 12.5 8.14 14.94 9.46 14.94 9.46 12.5 8.14"/>
  <polyline class="cls-1" points="14.94 6.81 14.94 9.45 14.94 9.46 14.95 9.46 17.38 8.14 17.38 8.14 14.94 6.81"/>
  <polygon class="cls-1" points="10.04 9.46 10.04 9.46 10.04 12.1 10.04 12.12 10.06 12.11 12.48 10.79 12.48 10.79 12.48 10.79 10.04 9.46"/>
  <polygon class="cls-1" points="7.61 13.43 10.03 12.11 10.03 12.11 7.6 10.79 7.59 10.78 7.59 13.42 7.59 13.43 7.61 13.43"/>
  <rect class="cls-1" x="4.78" y="29.05" width="25.22" height=".93"/>
  <rect class="cls-1" x="5.72" y="29.99" width="1.88" height="3.79"/>
  <rect class="cls-1" x="10.01" y="29.99" width="1.88" height="3.79"/>
  <rect class="cls-1" x="14.31" y="29.99" width="1.88" height="3.79"/>
  <rect class="cls-1" x="18.6" y="29.99" width="1.88" height="3.79"/>
  <rect class="cls-1" x="22.9" y="29.99" width="1.88" height="3.79"/>
  <rect class="cls-1" x="27.2" y="29.99" width="1.88" height="3.79"/>
  <rect class="cls-1" x="4.78" y="4.76" width=".93" height="25.22"/>
  <rect class="cls-1" x=".99" y="5.7" width="3.79" height="1.88"/>
  <rect class="cls-1" x=".99" y="9.99" width="3.79" height="1.88"/>
  <rect class="cls-1" x=".99" y="14.29" width="3.79" height="1.88"/>
  <rect class="cls-1" x=".99" y="18.58" width="3.79" height="1.88"/>
  <rect class="cls-1" x=".99" y="22.88" width="3.79" height="1.88"/>
  <rect class="cls-1" x=".99" y="27.18" width="3.79" height="1.88"/>
  <rect class="cls-1" x="4.78" y="4.76" width="25.22" height=".93"/>
  <rect class="cls-1" x="27.19" y=".97" width="1.88" height="3.79"/>
  <rect class="cls-1" x="22.9" y=".97" width="1.88" height="3.79"/>
  <rect class="cls-1" x="18.6" y=".97" width="1.88" height="3.79"/>
  <rect class="cls-1" x="14.31" y=".97" width="1.88" height="3.79"/>
  <rect class="cls-1" x="10.01" y=".97" width="1.88" height="3.79"/>
  <rect class="cls-1" x="5.71" y=".97" width="1.88" height="3.79"/>
  <rect class="cls-1" x="29.07" y="4.76" width=".93" height="25.22"/>
  <rect class="cls-1" x="30" y="27.18" width="3.79" height="1.88"/>
  <rect class="cls-1" x="30" y="22.88" width="3.79" height="1.88"/>
  <rect class="cls-1" x="30" y="18.58" width="3.79" height="1.88"/>
  <rect class="cls-1" x="30" y="14.29" width="3.79" height="1.88"/>
  <rect class="cls-1" x="30" y="9.99" width="3.79" height="1.88"/>
  <rect class="cls-1" x="30" y="5.7" width="3.79" height="1.88"/>
  <path class="cls-1" d="M0,34.79h34.79V0H0v34.79ZM33.62,33.59H1.17V1.2h32.45v32.39Z"/>
</svg>