<?xml version="1.0" encoding="UTF-8"?>
<svg id="Layer_1" data-name="Layer 1" xmlns="http://www.w3.org/2000/svg" viewBox="0 0 34.79 34.79">
  <defs>
    <style>
      .cls-1 {
        fill: #fe732d;
      }
    </style>
  </defs>
  <polygon class="cls-1" points="22.89 7.01 22.86 6.98 22.91 6.98 22.87 6.93 22.86 6.93 17.44 1.22 11.96 6.99 11.96 6.98 11.96 6.98 11.93 7.01 22.89 7.01"/>
  <polygon class="cls-1" points="11.95 7.01 6.47 12.78 17.43 12.78 11.95 7.01"/>
  <polygon class="cls-1" points="17.44 12.78 28.39 12.78 28.36 12.75 28.37 12.74 22.92 7.01 17.44 12.78"/>
  <polygon class="cls-1" points="22.89 18.56 17.44 12.78 11.96 18.54 11.96 18.54 11.96 18.54 11.93 18.56 22.89 18.56"/>
  <polygon class="cls-1" points="11.93 18.56 6.45 24.33 17.41 24.33 11.93 18.56"/>
  <polygon class="cls-1" points="17.42 24.33 28.37 24.33 28.34 24.3 28.35 24.29 22.9 18.56 17.42 24.33"/>
  <polygon class="cls-1" points="11.93 18.56 11.93 18.56 6.45 12.8 6.4 12.8 .92 18.56 11.93 18.56"/>
  <polygon class="cls-1" points="28.34 24.33 33.83 24.33 33.83 18.56 28.34 24.33"/>
  <polygon class="cls-1" points="33.87 18.56 28.44 12.85 28.32 12.85 22.89 18.56 33.87 18.56"/>
  <rect class="cls-1" x=".94" y="25.6" width="32.9" height="2"/>
  <rect class="cls-1" x=".94" y="29.2" width="32.9" height="2"/>
  <rect class="cls-1" x=".94" y="32.79" width="32.9" height="2"/>
  <polygon class="cls-1" points=".92 24.33 6.44 24.33 6.43 24.32 .93 18.53 .93 18.53 .92 18.54 .92 24.33"/>
  <path class="cls-1" d="M0,34.79h34.79V0H0v34.79ZM33.62,33.59H1.17V1.2h32.45v32.39Z"/>
  <polygon class="cls-1" points="33.59 8.93 33.59 8.89 33.62 8.92 33.62 8.86 33.62 8.86 33.62 1.18 25.87 1.19 25.87 1.18 25.84 1.18 33.59 8.93"/>
  <polygon class="cls-1" points="8.92 1.19 8.87 1.19 8.91 1.16 8.85 1.16 8.85 1.16 1.17 1.16 1.17 8.91 1.17 8.91 1.17 8.95 8.92 1.19"/>
</svg>