<?xml version="1.0" encoding="UTF-8"?>
<svg id="Layer_1" data-name="Layer 1" xmlns="http://www.w3.org/2000/svg" viewBox="0 0 34.79 34.79">
  <defs>
    <style>
      .cls-1 {
        fill: #03c3cd;
      }
    </style>
  </defs>
  <rect class="cls-1" y="20.35" width="34.79" height=".8"/>
  <rect class="cls-1" y="29.62" width="34.79" height=".8"/>
  <rect class="cls-1" y="31.42" width="34.79" height=".8"/>
  <rect class="cls-1" y="12.31" width="34.79" height=".71"/>
  <rect class="cls-1" y="4.22" width="34.79" height=".71"/>
  <rect class="cls-1" y="2.72" width="34.79" height=".71"/>
  <rect class="cls-1" x="1.49" width=".71" height="2.8"/>
  <rect class="cls-1" x="3.56" width=".71" height="2.8"/>
  <rect class="cls-1" x="5.64" width=".71" height="2.8"/>
  <rect class="cls-1" x="7.71" width=".71" height="2.8"/>
  <rect class="cls-1" x="9.78" width=".71" height="2.8"/>
  <rect class="cls-1" x="11.86" width=".71" height="2.8"/>
  <rect class="cls-1" x="13.93" width=".71" height="2.8"/>
  <rect class="cls-1" x="16" width=".71" height="2.8"/>
  <rect class="cls-1" x="18.08" width=".71" height="2.8"/>
  <rect class="cls-1" x="20.15" width=".71" height="2.8"/>
  <rect class="cls-1" x="22.22" width=".71" height="2.8"/>
  <rect class="cls-1" x="24.29" width=".71" height="2.8"/>
  <rect class="cls-1" x="26.37" width=".71" height="2.8"/>
  <rect class="cls-1" x="28.44" width=".71" height="2.8"/>
  <rect class="cls-1" x="30.51" width=".71" height="2.8"/>
  <rect class="cls-1" x="32.59" width=".71" height="2.8"/>
  <rect class="cls-1" x="1.49" y="31.99" width=".71" height="2.8"/>
  <rect class="cls-1" x="3.56" y="31.99" width=".71" height="2.8"/>
  <rect class="cls-1" x="5.64" y="31.99" width=".71" height="2.8"/>
  <rect class="cls-1" x="7.71" y="31.99" width=".71" height="2.8"/>
  <rect class="cls-1" x="9.78" y="31.99" width=".71" height="2.8"/>
  <rect class="cls-1" x="11.86" y="31.99" width=".71" height="2.8"/>
  <rect class="cls-1" x="13.93" y="31.99" width=".71" height="2.8"/>
  <rect class="cls-1" x="16" y="31.99" width=".71" height="2.8"/>
  <rect class="cls-1" x="18.08" y="31.99" width=".71" height="2.8"/>
  <rect class="cls-1" x="20.15" y="31.99" width=".71" height="2.8"/>
  <rect class="cls-1" x="22.22" y="31.99" width=".71" height="2.8"/>
  <rect class="cls-1" x="24.29" y="31.99" width=".71" height="2.8"/>
  <rect class="cls-1" x="26.37" y="31.99" width=".71" height="2.8"/>
  <rect class="cls-1" x="28.44" y="31.99" width=".71" height="2.8"/>
  <rect class="cls-1" x="30.51" y="31.99" width=".71" height="2.8"/>
  <rect class="cls-1" x="32.59" y="31.99" width=".71" height="2.8"/>
  <path class="cls-1" d="M27.67,18.84l-1.3-1.3,1.3,1.3Z"/>
  <rect class="cls-1" x="28.93" y="17.27" width="0" height="1.84"/>
  <polygon class="cls-1" points="27.97 19.15 28.28 18.84 28.28 18.84 27.97 19.14 27.67 18.84 27.97 19.15"/>
  <polygon class="cls-1" points="26.37 17.54 27.67 18.84 27.97 19.14 28.28 18.84 29.58 17.54 29.58 17.54 29.58 17.53 29.58 17.53 26.36 17.53 26.37 17.54 26.37 17.54 26.37 17.54"/>
  <polygon class="cls-1" points="26.36 17.53 26.35 17.54 26.37 17.54 26.36 17.53"/>
  <polygon class="cls-1" points="24.76 19.15 24.76 19.15 24.76 19.15 24.77 19.15 26.37 17.54 26.37 17.54 26.37 17.54 26.35 17.54 23.16 17.54 23.16 17.55 24.76 19.15"/>
  <polygon class="cls-1" points="23.15 17.54 23.15 17.54 23.15 17.54 23.15 17.54"/>
  <polygon class="cls-1" points="27.97 15.92 27.97 15.92 24.77 15.92 24.76 15.92 26.37 17.53 26.37 17.53 27.97 15.93 27.97 15.92"/>
  <polygon class="cls-1" points="27.97 15.92 27.97 15.93 29.58 17.53 29.58 17.53 31.19 15.92 31.19 15.92 27.97 15.92"/>
  <polygon class="cls-1" points="31.18 19.15 31.19 19.16 31.19 19.16 31.19 19.16 31.19 19.16 32.8 17.55 29.6 17.55 29.58 17.55 31.18 19.15"/>
  <polygon class="cls-1" points="26.37 14.31 27.97 15.92 27.98 15.92 29.58 14.31 29.59 14.3 26.38 14.3 26.37 14.31"/>
  <polygon class="cls-1" points="24.77 15.91 24.77 15.92 24.77 15.92 24.77 15.91"/>
  <polygon class="cls-1" points="17.16 18.84 15.87 17.54 15.87 17.54 17.16 18.84"/>
  <rect class="cls-1" x="18.43" y="17.27" width="0" height="1.84"/>
  <polygon class="cls-1" points="17.47 19.15 17.78 18.84 17.77 18.84 17.47 19.14 17.16 18.84 17.47 19.15"/>
  <polygon class="cls-1" points="15.87 17.54 17.16 18.84 17.47 19.14 17.77 18.84 19.08 17.54 19.07 17.54 19.08 17.53 19.07 17.53 15.86 17.53 15.86 17.54 15.87 17.54 15.87 17.54"/>
  <polygon class="cls-1" points="15.86 17.53 15.85 17.54 15.86 17.54 15.86 17.53"/>
  <polygon class="cls-1" points="14.26 19.15 14.26 19.15 14.26 19.15 14.26 19.15 15.87 17.54 15.87 17.54 15.86 17.54 15.85 17.54 12.66 17.54 12.65 17.55 14.26 19.15"/>
  <polygon class="cls-1" points="12.64 17.54 12.64 17.54 12.64 17.54 12.64 17.54"/>
  <polygon class="cls-1" points="17.46 15.92 17.47 15.92 14.27 15.92 14.26 15.92 15.87 17.53 17.47 15.93 17.46 15.92"/>
  <polygon class="cls-1" points="17.46 15.92 17.47 15.93 19.07 17.53 19.08 17.53 20.69 15.92 20.69 15.92 17.46 15.92"/>
  <polygon class="cls-1" points="20.67 19.15 20.69 19.16 20.69 19.16 20.69 19.16 20.69 19.16 22.3 17.55 19.1 17.55 19.07 17.55 20.67 19.15"/>
  <polygon class="cls-1" points="15.87 14.31 17.47 15.92 17.47 15.92 19.08 14.31 19.08 14.3 15.88 14.3 15.87 14.31"/>
  <polygon class="cls-1" points="14.27 15.91 14.27 15.92 14.27 15.92 14.27 15.91"/>
  <path class="cls-1" d="M6.47,18.84l-1.3-1.3,1.3,1.3Z"/>
  <rect class="cls-1" x="7.74" y="17.27" width="0" height="1.84"/>
  <polygon class="cls-1" points="6.78 19.15 7.09 18.84 7.08 18.84 6.78 19.14 6.47 18.84 6.78 19.15"/>
  <polygon class="cls-1" points="5.18 17.54 6.47 18.84 6.78 19.14 7.08 18.84 8.39 17.54 8.38 17.54 8.39 17.53 8.38 17.53 5.17 17.53 5.17 17.54 5.18 17.54 5.18 17.54"/>
  <polygon class="cls-1" points="5.17 17.53 5.16 17.54 5.17 17.54 5.17 17.53"/>
  <polygon class="cls-1" points="3.57 19.15 3.57 19.15 3.57 19.15 3.57 19.15 5.18 17.54 5.18 17.54 5.17 17.54 5.16 17.54 1.97 17.54 1.96 17.55 3.57 19.15"/>
  <polygon class="cls-1" points="1.95 17.54 1.95 17.54 1.95 17.54 1.95 17.54"/>
  <polygon class="cls-1" points="6.77 15.92 6.78 15.92 3.58 15.92 3.57 15.92 5.18 17.53 5.18 17.53 6.78 15.93 6.77 15.92"/>
  <polygon class="cls-1" points="6.77 15.92 6.78 15.93 8.38 17.53 8.39 17.53 10 15.92 10 15.92 6.77 15.92"/>
  <polygon class="cls-1" points="9.98 19.15 10 19.16 10 19.16 10 19.16 10 19.16 11.61 17.55 8.41 17.55 8.38 17.55 9.98 19.15"/>
  <polygon class="cls-1" points="5.18 14.31 6.78 15.92 6.78 15.92 8.39 14.31 8.39 14.3 5.19 14.3 5.18 14.31"/>
  <polygon class="cls-1" points="3.58 15.91 3.58 15.92 3.58 15.92 3.58 15.91"/>
  <path class="cls-1" d="M27.67,10.58l-1.3-1.3,1.3,1.3Z"/>
  <rect class="cls-1" x="28.93" y="9.01" width="0" height="1.84"/>
  <polygon class="cls-1" points="27.97 10.89 28.28 10.58 28.28 10.58 27.97 10.89 27.67 10.58 27.97 10.89"/>
  <polygon class="cls-1" points="26.37 9.29 27.67 10.58 27.97 10.89 28.28 10.58 29.58 9.28 29.58 9.28 29.58 9.28 29.58 9.28 26.36 9.28 26.37 9.28 26.37 9.28 26.37 9.29"/>
  <polygon class="cls-1" points="26.36 9.28 26.35 9.28 26.37 9.28 26.36 9.28"/>
  <polygon class="cls-1" points="24.76 10.9 24.76 10.9 24.76 10.9 24.77 10.89 26.37 9.29 26.37 9.29 26.37 9.29 26.35 9.29 23.16 9.29 23.16 9.29 24.76 10.9"/>
  <polygon class="cls-1" points="23.15 9.28 23.15 9.28 23.15 9.28 23.15 9.28"/>
  <polygon class="cls-1" points="27.97 7.67 27.97 7.66 24.77 7.66 24.76 7.67 26.37 9.27 26.37 9.27 27.97 7.67 27.97 7.67"/>
  <polygon class="cls-1" points="27.97 7.67 27.97 7.67 29.58 9.28 29.58 9.28 31.19 7.67 31.19 7.67 27.97 7.67"/>
  <polygon class="cls-1" points="31.18 10.89 31.19 10.9 31.19 10.9 31.19 10.9 31.19 10.9 32.8 9.29 29.6 9.29 29.58 9.29 31.18 10.89"/>
  <polygon class="cls-1" points="26.37 6.06 27.97 7.66 27.98 7.66 29.58 6.06 29.59 6.05 26.38 6.05 26.37 6.06"/>
  <polygon class="cls-1" points="24.77 7.66 24.77 7.66 24.77 7.66 24.77 7.66"/>
  <polygon class="cls-1" points="17.16 10.58 15.87 9.29 15.87 9.29 17.16 10.58"/>
  <rect class="cls-1" x="18.43" y="9.01" width="0" height="1.84"/>
  <polygon class="cls-1" points="17.47 10.89 17.78 10.58 17.77 10.58 17.47 10.89 17.16 10.58 17.47 10.89"/>
  <polygon class="cls-1" points="15.87 9.29 17.16 10.58 17.47 10.89 17.77 10.58 19.08 9.28 19.07 9.28 19.08 9.28 19.07 9.28 15.86 9.28 15.86 9.28 15.87 9.28 15.87 9.29"/>
  <polygon class="cls-1" points="15.86 9.28 15.85 9.28 15.86 9.28 15.86 9.28"/>
  <polygon class="cls-1" points="14.26 10.9 14.26 10.9 14.26 10.9 14.26 10.89 15.87 9.29 15.87 9.29 15.86 9.29 15.85 9.29 12.66 9.29 12.65 9.29 14.26 10.9"/>
  <polygon class="cls-1" points="12.64 9.28 12.64 9.28 12.64 9.28 12.64 9.28"/>
  <polygon class="cls-1" points="17.46 7.67 17.47 7.66 14.27 7.66 14.26 7.67 15.87 9.27 17.47 7.67 17.46 7.67"/>
  <polygon class="cls-1" points="17.46 7.67 17.47 7.67 19.07 9.28 19.08 9.28 20.69 7.67 20.69 7.67 17.46 7.67"/>
  <polygon class="cls-1" points="20.67 10.89 20.69 10.9 20.69 10.9 20.69 10.9 20.69 10.9 22.3 9.29 19.1 9.29 19.07 9.29 20.67 10.89"/>
  <polygon class="cls-1" points="15.87 6.06 17.47 7.66 17.47 7.66 19.08 6.06 19.08 6.05 15.88 6.05 15.87 6.06"/>
  <polygon class="cls-1" points="14.27 7.66 14.27 7.66 14.27 7.66 14.27 7.66"/>
  <path class="cls-1" d="M6.47,10.58l-1.3-1.3,1.3,1.3Z"/>
  <rect class="cls-1" x="7.74" y="9.01" width="0" height="1.84"/>
  <polygon class="cls-1" points="6.78 10.89 7.09 10.58 7.08 10.58 6.78 10.89 6.47 10.58 6.78 10.89"/>
  <polygon class="cls-1" points="5.18 9.29 6.47 10.58 6.78 10.89 7.08 10.58 8.39 9.28 8.38 9.28 8.39 9.28 8.38 9.28 5.17 9.28 5.17 9.28 5.18 9.28 5.18 9.29"/>
  <polygon class="cls-1" points="5.17 9.28 5.16 9.28 5.17 9.28 5.17 9.28"/>
  <polygon class="cls-1" points="3.57 10.9 3.57 10.9 3.57 10.9 3.57 10.89 5.18 9.29 5.18 9.29 5.17 9.29 5.16 9.29 1.97 9.29 1.96 9.29 3.57 10.9"/>
  <polygon class="cls-1" points="1.95 9.28 1.95 9.28 1.95 9.28 1.95 9.28"/>
  <polygon class="cls-1" points="6.77 7.67 6.78 7.66 3.58 7.66 3.57 7.67 5.18 9.27 5.18 9.27 6.78 7.67 6.77 7.67"/>
  <polygon class="cls-1" points="6.77 7.67 6.78 7.67 8.38 9.28 8.39 9.28 10 7.67 10 7.67 6.77 7.67"/>
  <polygon class="cls-1" points="9.98 10.89 10 10.9 10 10.9 10 10.9 10 10.9 11.61 9.29 8.41 9.29 8.38 9.29 9.98 10.89"/>
  <polygon class="cls-1" points="5.18 6.06 6.78 7.66 6.78 7.66 8.39 6.06 8.39 6.05 5.19 6.05 5.18 6.06"/>
  <polygon class="cls-1" points="3.58 7.66 3.58 7.66 3.58 7.66 3.58 7.66"/>
  <path class="cls-1" d="M27.67,27.29l-1.3-1.3,1.3,1.3Z"/>
  <rect class="cls-1" x="28.93" y="25.72" width="0" height="1.84"/>
  <polygon class="cls-1" points="27.97 27.6 28.28 27.29 28.28 27.29 27.97 27.6 27.67 27.29 27.97 27.6"/>
  <polygon class="cls-1" points="26.37 26 27.67 27.29 27.97 27.6 28.28 27.29 29.58 25.99 29.58 25.99 29.58 25.99 29.58 25.99 26.36 25.99 26.37 26 26.37 26 26.37 26"/>
  <polygon class="cls-1" points="26.36 25.99 26.35 26 26.37 26 26.36 25.99"/>
  <polygon class="cls-1" points="24.76 27.61 24.76 27.61 24.76 27.61 24.77 27.6 26.37 26 26.37 26 26.37 26 26.35 26 23.16 26 23.16 26 24.76 27.61"/>
  <polygon class="cls-1" points="23.15 26 23.15 26 23.15 26 23.15 26"/>
  <polygon class="cls-1" points="27.97 24.38 27.97 24.37 24.77 24.37 24.76 24.38 26.37 25.98 26.37 25.98 27.97 24.38 27.97 24.38"/>
  <polygon class="cls-1" points="27.97 24.38 27.97 24.38 29.58 25.99 29.58 25.99 31.19 24.38 31.19 24.38 27.97 24.38"/>
  <polygon class="cls-1" points="31.18 27.6 31.19 27.61 31.19 27.62 31.19 27.61 31.19 27.61 32.8 26 29.6 26 29.58 26 31.18 27.6"/>
  <polygon class="cls-1" points="26.37 22.77 27.97 24.37 27.98 24.37 29.58 22.77 29.59 22.76 26.38 22.76 26.37 22.77"/>
  <polygon class="cls-1" points="24.77 24.37 24.77 24.37 24.77 24.37 24.77 24.37"/>
  <polygon class="cls-1" points="17.16 27.29 15.87 26 15.87 26 17.16 27.29"/>
  <rect class="cls-1" x="18.43" y="25.72" width="0" height="1.84"/>
  <polygon class="cls-1" points="17.47 27.6 17.78 27.29 17.77 27.29 17.47 27.6 17.16 27.29 17.47 27.6"/>
  <polygon class="cls-1" points="15.87 26 17.16 27.29 17.47 27.6 17.77 27.29 19.08 25.99 19.07 25.99 19.08 25.99 19.07 25.99 15.86 25.99 15.86 26 15.87 26 15.87 26"/>
  <polygon class="cls-1" points="15.86 25.99 15.85 26 15.86 26 15.86 25.99"/>
  <polygon class="cls-1" points="14.26 27.61 14.26 27.61 14.26 27.61 14.26 27.6 15.87 26 15.87 26 15.86 26 15.85 26 12.66 26 12.65 26 14.26 27.61"/>
  <polygon class="cls-1" points="12.64 26 12.64 26 12.64 26 12.64 26"/>
  <polygon class="cls-1" points="17.46 24.38 17.47 24.37 14.27 24.37 14.26 24.38 15.87 25.98 17.47 24.38 17.46 24.38"/>
  <polygon class="cls-1" points="17.46 24.38 17.47 24.38 19.07 25.99 19.08 25.99 20.69 24.38 20.69 24.38 17.46 24.38"/>
  <polygon class="cls-1" points="20.67 27.6 20.69 27.61 20.69 27.62 20.69 27.61 20.69 27.61 22.3 26 19.1 26 19.07 26 20.67 27.6"/>
  <polygon class="cls-1" points="15.87 22.77 17.47 24.37 17.47 24.37 19.08 22.77 19.08 22.76 15.88 22.76 15.87 22.77"/>
  <polygon class="cls-1" points="14.27 24.37 14.27 24.37 14.27 24.37 14.27 24.37"/>
  <path class="cls-1" d="M6.47,27.29l-1.3-1.3,1.3,1.3Z"/>
  <rect class="cls-1" x="7.74" y="25.72" width="0" height="1.84"/>
  <polygon class="cls-1" points="6.78 27.6 7.09 27.29 7.08 27.29 6.78 27.6 6.47 27.29 6.78 27.6"/>
  <polygon class="cls-1" points="5.18 26 6.47 27.29 6.78 27.6 7.08 27.29 8.39 25.99 8.38 25.99 8.39 25.99 8.38 25.99 5.17 25.99 5.17 26 5.18 26 5.18 26"/>
  <polygon class="cls-1" points="5.17 25.99 5.16 26 5.17 26 5.17 25.99"/>
  <polygon class="cls-1" points="3.57 27.61 3.57 27.61 3.57 27.61 3.57 27.6 5.18 26 5.18 26 5.17 26 5.16 26 1.97 26 1.96 26 3.57 27.61"/>
  <polygon class="cls-1" points="1.95 26 1.95 26 1.95 26 1.95 26"/>
  <polygon class="cls-1" points="6.77 24.38 6.78 24.37 3.58 24.37 3.57 24.38 5.18 25.98 5.18 25.98 6.78 24.38 6.77 24.38"/>
  <polygon class="cls-1" points="6.77 24.38 6.78 24.38 8.38 25.99 8.39 25.99 10 24.38 10 24.38 6.77 24.38"/>
  <polygon class="cls-1" points="9.98 27.6 10 27.61 10 27.62 10 27.61 10 27.61 11.61 26 8.41 26 8.38 26 9.98 27.6"/>
  <polygon class="cls-1" points="5.18 22.77 6.78 24.37 6.78 24.37 8.39 22.77 8.39 22.76 5.19 22.76 5.18 22.77"/>
  <polygon class="cls-1" points="3.58 24.37 3.58 24.37 3.58 24.37 3.58 24.37"/>
  <path class="cls-1" d="M0,34.79h34.79V0H0v34.79ZM33.62,33.59H1.17V1.2h32.45v32.39Z"/>
</svg>