<?xml version="1.0" encoding="UTF-8"?>
<svg id="Layer_1" data-name="Layer 1" xmlns="http://www.w3.org/2000/svg" viewBox="0 0 34.79 34.79">
  <defs>
    <style>
      .cls-1 {
        fill: #f4b91d;
      }
    </style>
  </defs>
  <polygon class="cls-1" points="4.34 8.65 4.34 4.9 4.22 4.77 4.21 4.77 4.34 4.63 4.34 4.27 4.31 4.27 4.18 4.4 4.05 4.27 3.96 4.27 3.96 8.54 4.1 8.4 4.34 8.65"/>
  <polygon class="cls-1" points="4.34 23.9 4.34 22.51 4.1 22.75 3.96 22.62 3.96 23.79 4.1 23.66 4.34 23.9"/>
  <polygon class="cls-1" points="4.34 20.13 4.34 18.57 4.1 18.82 3.96 18.68 3.96 20.02 4.1 19.88 4.34 20.13"/>
  <polygon class="cls-1" points="4.34 16.19 4.34 14.8 4.1 15.04 3.96 14.91 3.96 16.08 4.1 15.95 4.34 16.19"/>
  <polygon class="cls-1" points="4.22 30.18 4.34 30.06 4.34 26.28 4.1 26.53 3.96 26.39 3.96 30.55 4.18 30.33 4.34 30.49 4.34 30.32 4.21 30.19 4.22 30.18"/>
  <polygon class="cls-1" points="4.34 12.42 4.34 11.03 4.1 11.27 3.96 11.14 3.96 12.31 4.1 12.17 4.34 12.42"/>
  <polygon class="cls-1" points="10.51 20.42 10.51 20.93 10.73 20.71 10.89 20.87 10.89 20.48 10.73 20.64 10.51 20.42"/>
  <polygon class="cls-1" points="10.77 30.18 10.89 30.06 10.89 27.04 10.73 27.2 10.51 26.98 10.51 29.95 10.74 30.18 10.75 30.19 10.51 30.43 10.51 30.55 10.73 30.33 10.89 30.49 10.89 30.32 10.76 30.19 10.77 30.18"/>
  <polygon class="cls-1" points="10.74 4.77 10.51 5.01 10.51 7.81 10.73 7.59 10.89 7.75 10.89 4.9 10.77 4.77 10.76 4.77 10.89 4.64 10.89 4.27 10.86 4.27 10.73 4.41 10.6 4.27 10.51 4.27 10.51 4.53 10.75 4.77 10.74 4.77"/>
  <polygon class="cls-1" points="10.51 13.86 10.51 14.37 10.73 14.15 10.89 14.31 10.89 13.92 10.73 14.08 10.51 13.86"/>
  <polygon class="cls-1" points="17.06 13.86 17.06 14.38 17.28 14.15 17.44 14.31 17.44 13.92 17.28 14.08 17.06 13.86"/>
  <polygon class="cls-1" points="17.06 20.42 17.06 20.93 17.28 20.71 17.44 20.87 17.44 20.49 17.28 20.65 17.06 20.42"/>
  <polygon class="cls-1" points="17.29 4.77 17.06 5.01 17.06 7.81 17.28 7.59 17.44 7.75 17.44 4.9 17.32 4.77 17.31 4.77 17.44 4.64 17.44 4.27 17.41 4.27 17.28 4.41 17.15 4.27 17.06 4.27 17.06 4.53 17.3 4.77 17.29 4.77"/>
  <polygon class="cls-1" points="17.32 30.18 17.44 30.06 17.44 27.04 17.28 27.2 17.06 26.98 17.06 29.95 17.29 30.18 17.3 30.19 17.06 30.43 17.06 30.55 17.28 30.33 17.44 30.49 17.44 30.32 17.31 30.19 17.32 30.18"/>
  <polygon class="cls-1" points="23.61 20.42 23.61 20.93 23.83 20.71 23.99 20.87 23.99 20.48 23.83 20.64 23.61 20.42"/>
  <polygon class="cls-1" points="23.87 30.18 23.99 30.06 23.99 27.04 23.83 27.2 23.61 26.98 23.61 29.95 23.84 30.18 23.85 30.19 23.61 30.43 23.61 30.55 23.83 30.33 23.99 30.49 23.99 30.32 23.86 30.19 23.87 30.18"/>
  <polygon class="cls-1" points="23.61 13.86 23.61 14.37 23.83 14.15 23.99 14.31 23.99 13.92 23.83 14.08 23.61 13.86"/>
  <polygon class="cls-1" points="23.84 4.77 23.61 5.01 23.61 7.81 23.83 7.59 23.99 7.75 23.99 4.9 23.87 4.77 23.86 4.77 23.99 4.64 23.99 4.27 23.96 4.27 23.83 4.41 23.69 4.27 23.61 4.27 23.61 4.53 23.85 4.77 23.84 4.77"/>
  <polygon class="cls-1" points="30.39 4.77 30.16 5.01 30.16 8.51 30.27 8.4 30.54 8.68 30.54 4.27 30.51 4.27 30.38 4.41 30.24 4.27 30.16 4.27 30.16 4.53 30.4 4.77 30.39 4.77"/>
  <polygon class="cls-1" points="30.16 11.16 30.16 12.28 30.27 12.17 30.54 12.45 30.54 11 30.27 11.27 30.16 11.16"/>
  <polygon class="cls-1" points="30.16 14.94 30.16 16.06 30.27 15.95 30.54 16.22 30.54 14.77 30.27 15.04 30.16 14.94"/>
  <polygon class="cls-1" points="30.16 22.64 30.16 23.76 30.27 23.65 30.54 23.93 30.54 22.48 30.27 22.75 30.16 22.64"/>
  <polygon class="cls-1" points="30.27 26.53 30.16 26.42 30.16 29.95 30.39 30.18 30.4 30.19 30.16 30.43 30.16 30.55 30.38 30.33 30.54 30.49 30.54 26.25 30.27 26.53"/>
  <polygon class="cls-1" points="30.16 18.71 30.16 19.99 30.27 19.88 30.54 20.16 30.54 18.54 30.27 18.82 30.16 18.71"/>
  <polygon class="cls-1" points="10.73 4.41 10.86 4.27 14 1.16 7.46 1.16 10.6 4.27 10.73 4.41"/>
  <polygon class="cls-1" points="4.18 4.41 4.31 4.27 7.45 1.16 .93 1.16 .93 1.18 4.05 4.27 4.18 4.41"/>
  <polygon class="cls-1" points="17.28 4.41 17.41 4.27 20.55 1.16 14.01 1.16 17.15 4.27 17.28 4.41"/>
  <polygon class="cls-1" points="17.06 14.38 14.01 17.4 17.06 20.42 17.28 20.65 17.44 20.49 20.55 17.4 17.44 14.31 17.28 14.16 17.06 14.38"/>
  <polygon class="cls-1" points="23.83 4.41 23.96 4.27 27.1 1.16 20.56 1.16 23.69 4.27 23.83 4.41"/>
  <polygon class="cls-1" points="30.38 4.41 30.51 4.27 33.62 1.18 33.62 1.16 27.11 1.16 30.24 4.27 30.38 4.41"/>
  <polygon class="cls-1" points="10.89 30.49 10.73 30.33 10.51 30.55 7.46 33.58 7.51 33.63 13.94 33.63 14 33.58 10.89 30.49"/>
  <polygon class="cls-1" points="4.34 30.49 4.18 30.33 3.96 30.55 .93 33.56 .93 33.6 .96 33.63 7.39 33.63 7.45 33.58 4.34 30.49"/>
  <polygon class="cls-1" points="17.44 30.49 17.28 30.33 17.06 30.55 14.01 33.58 14.06 33.63 20.49 33.63 20.55 33.58 17.44 30.49"/>
  <polygon class="cls-1" points="23.99 30.49 23.83 30.33 23.61 30.55 20.56 33.58 20.61 33.63 27.04 33.63 27.1 33.58 23.99 30.49"/>
  <polygon class="cls-1" points="33.62 33.56 30.54 30.49 30.38 30.33 30.16 30.55 27.11 33.58 27.16 33.63 33.59 33.63 33.62 33.6 33.62 33.56"/>
  <polygon class="cls-1" points="10.51 13.86 10.73 14.08 10.89 13.92 14 10.83 10.89 7.75 10.73 7.59 10.51 7.81 7.46 10.83 10.51 13.86"/>
  <polygon class="cls-1" points="17.06 13.86 17.28 14.08 17.44 13.92 20.55 10.83 17.44 7.75 17.28 7.59 17.06 7.81 14.01 10.83 17.06 13.86"/>
  <polygon class="cls-1" points="23.61 13.86 23.83 14.08 23.99 13.92 27.1 10.83 23.99 7.75 23.83 7.59 23.61 7.81 20.56 10.83 23.61 13.86"/>
  <polygon class="cls-1" points="10.51 14.37 7.46 17.4 10.51 20.42 10.73 20.64 10.89 20.48 14 17.4 10.89 14.31 10.73 14.15 10.51 14.37"/>
  <polygon class="cls-1" points="23.61 14.37 20.56 17.4 23.61 20.42 23.83 20.64 23.99 20.48 27.1 17.4 23.99 14.31 23.83 14.15 23.61 14.37"/>
  <polygon class="cls-1" points="10.89 20.87 10.73 20.71 10.51 20.93 7.46 23.96 10.51 26.98 10.73 27.2 10.89 27.04 14 23.96 10.89 20.87"/>
  <polygon class="cls-1" points="17.44 20.87 17.28 20.71 17.06 20.93 14.01 23.96 17.06 26.98 17.28 27.2 17.44 27.04 20.55 23.96 17.44 20.87"/>
  <polygon class="cls-1" points="23.99 20.87 23.83 20.71 23.61 20.93 20.56 23.96 23.61 26.98 23.83 27.2 23.99 27.04 27.1 23.96 23.99 20.87"/>
  <polygon class="cls-1" points="10.89 30.06 10.77 30.18 17.29 30.18 17.06 29.95 14.03 26.94 10.89 30.06"/>
  <polygon class="cls-1" points="4.34 30.06 4.22 30.18 10.74 30.18 10.51 29.95 7.48 26.94 4.34 30.06"/>
  <polygon class="cls-1" points="17.44 30.06 17.32 30.18 23.84 30.18 23.61 29.95 20.58 26.94 17.44 30.06"/>
  <polygon class="cls-1" points="23.99 30.06 23.87 30.18 30.39 30.18 30.16 29.95 27.13 26.94 23.99 30.06"/>
  <polygon class="cls-1" points="17.06 5.01 17.29 4.77 10.77 4.77 10.89 4.9 14.03 8.01 17.06 5.01"/>
  <polygon class="cls-1" points="10.51 5.01 10.74 4.77 4.22 4.77 4.34 4.9 7.48 8.01 10.51 5.01"/>
  <polygon class="cls-1" points="23.61 5.01 23.84 4.77 17.32 4.77 17.44 4.9 20.58 8.01 23.61 5.01"/>
  <polygon class="cls-1" points="30.16 5.01 30.39 4.77 23.87 4.77 23.99 4.9 27.13 8.01 30.16 5.01"/>
  <polygon class="cls-1" points="4.34 18.57 5.54 17.38 4.34 16.19 4.1 15.95 3.96 16.08 2.65 17.38 3.96 18.68 4.1 18.82 4.34 18.57"/>
  <polygon class="cls-1" points="4.34 14.8 5.54 13.61 4.34 12.42 4.1 12.17 3.96 12.31 2.65 13.61 3.96 14.91 4.1 15.04 4.34 14.8"/>
  <polygon class="cls-1" points="4.34 11.03 5.54 9.84 4.34 8.65 4.1 8.4 3.96 8.54 2.65 9.84 3.96 11.14 4.1 11.27 4.34 11.03"/>
  <polygon class="cls-1" points="4.34 26.28 5.54 25.09 4.34 23.9 4.1 23.66 3.96 23.79 2.65 25.09 3.96 26.39 4.1 26.53 4.34 26.28"/>
  <polygon class="cls-1" points="4.34 22.51 5.54 21.32 4.34 20.13 4.1 19.88 3.96 20.02 2.65 21.32 3.96 22.62 4.1 22.75 4.34 22.51"/>
  <polygon class="cls-1" points="30.16 16.06 28.82 17.38 30.16 18.71 30.27 18.82 30.54 18.54 31.71 17.38 30.54 16.22 30.27 15.95 30.16 16.06"/>
  <polygon class="cls-1" points="30.16 12.28 28.82 13.61 30.16 14.94 30.27 15.04 30.54 14.77 31.71 13.61 30.54 12.45 30.27 12.17 30.16 12.28"/>
  <polygon class="cls-1" points="30.16 8.51 28.82 9.84 30.16 11.16 30.27 11.27 30.54 11 31.71 9.84 30.54 8.68 30.27 8.4 30.16 8.51"/>
  <polygon class="cls-1" points="30.16 23.76 28.82 25.09 30.16 26.42 30.27 26.53 30.54 26.25 31.71 25.09 30.54 23.93 30.27 23.66 30.16 23.76"/>
  <polygon class="cls-1" points="30.16 19.99 28.82 21.32 30.16 22.64 30.27 22.75 30.54 22.48 31.71 21.32 30.54 20.16 30.27 19.88 30.16 19.99"/>
  <path class="cls-1" d="M0,34.79h34.79V0H0v34.79ZM33.62,33.59H1.17V1.2h32.45v32.39Z"/>
</svg>