<?xml version="1.0" encoding="UTF-8"?>
<svg id="Layer_1" data-name="Layer 1" xmlns="http://www.w3.org/2000/svg" viewBox="0 0 34.79 34.79">
  <defs>
    <style>
      .cls-1 {
        fill: #f95061;
      }
    </style>
  </defs>
  <rect class="cls-1" x=".93" y="1.21" width="32.93" height="1.08"/>
  <rect class="cls-1" x=".93" y="26.7" width="32.93" height="1.51"/>
  <polygon class="cls-1" points="28.48 14.73 21.88 21.55 28.97 21.55 28.97 7.5 21.49 7.5 28.48 14.73"/>
  <polygon class="cls-1" points="11.32 21.55 13.46 21.55 6.87 14.73 13.86 7.5 5.82 7.5 5.82 21.55 11.32 21.55"/>
  <path class="cls-1" d="M17.67,5.06l-9.35,9.67,9.35,9.67,9.35-9.67-9.35-9.67ZM17.67,21.95l-6.98-7.22,6.98-7.22,6.98,7.22-6.98,7.22Z"/>
  <polygon class="cls-1" points="17.67 19.59 22.38 14.73 17.67 9.86 12.97 14.73 17.67 19.59"/>
  <polygon class="cls-1" points="30.49 28.22 30.48 28.21 30.48 28.21 30.48 28.21 30.48 28.21 29.33 29.36 31.62 29.36 31.63 29.36 30.49 28.22"/>
  <polygon class="cls-1" points="26.75 28.22 26.74 28.21 26.74 28.21 26.74 28.21 26.74 28.21 25.59 29.36 27.88 29.36 27.89 29.36 26.75 28.22"/>
  <polygon class="cls-1" points="23.01 28.22 23 28.21 23 28.21 23 28.21 23 28.21 21.85 29.36 24.14 29.36 24.15 29.36 23.01 28.22"/>
  <polygon class="cls-1" points="19.27 28.22 19.27 28.21 19.26 28.21 19.26 28.21 19.27 28.21 18.11 29.36 20.4 29.36 20.42 29.36 19.27 28.22"/>
  <polygon class="cls-1" points="15.53 28.22 15.53 28.21 15.52 28.21 15.52 28.21 15.53 28.21 14.37 29.36 16.66 29.36 16.68 29.36 15.53 28.22"/>
  <polygon class="cls-1" points="11.8 28.22 11.79 28.21 11.79 28.21 11.78 28.21 11.79 28.21 10.64 29.36 12.92 29.36 12.94 29.36 11.8 28.22"/>
  <polygon class="cls-1" points="8.06 28.22 8.05 28.21 8.05 28.21 8.04 28.21 8.05 28.21 6.9 29.36 9.18 29.36 9.2 29.36 8.06 28.22"/>
  <polygon class="cls-1" points="4.32 28.22 4.31 28.21 4.31 28.21 4.31 28.21 4.31 28.21 3.16 29.36 5.44 29.36 5.46 29.36 4.32 28.22"/>
  <polygon class="cls-1" points="4.3 1.14 4.31 1.15 4.31 1.15 4.31 1.15 4.31 1.15 5.46 0 3.17 0 3.16 0 4.3 1.14"/>
  <polygon class="cls-1" points="8.04 1.14 8.05 1.15 8.05 1.15 8.05 1.15 8.05 1.15 9.2 0 6.91 0 6.9 0 8.04 1.14"/>
  <polygon class="cls-1" points="11.78 1.14 11.79 1.15 11.79 1.15 11.79 1.15 11.79 1.15 12.94 0 10.65 0 10.64 0 11.78 1.14"/>
  <polygon class="cls-1" points="15.52 1.14 15.52 1.15 15.53 1.15 15.53 1.15 15.52 1.15 16.68 0 14.39 0 14.37 0 15.52 1.14"/>
  <polygon class="cls-1" points="19.26 1.14 19.26 1.15 19.27 1.15 19.27 1.15 19.26 1.15 20.42 0 18.13 0 18.11 0 19.26 1.14"/>
  <polygon class="cls-1" points="22.99 1.14 23 1.15 23 1.15 23.01 1.15 23 1.15 24.15 0 21.87 0 21.85 0 22.99 1.14"/>
  <polygon class="cls-1" points="26.73 1.14 26.74 1.15 26.74 1.15 26.75 1.15 26.74 1.15 27.89 0 25.61 0 25.59 0 26.73 1.14"/>
  <polygon class="cls-1" points="30.47 1.14 30.48 1.15 30.48 1.15 30.48 1.15 30.48 1.15 31.63 0 29.35 0 29.33 0 30.47 1.14"/>
  <path class="cls-1" d="M0,34.79h34.79V0H0v34.79ZM33.62,33.59H1.17V1.2h32.45v32.39Z"/>
</svg>