<?xml version="1.0" encoding="UTF-8"?>
<svg id="Layer_1" data-name="Layer 1" xmlns="http://www.w3.org/2000/svg" viewBox="0 0 34.79 34.79">
  <defs>
    <style>
      .cls-1 {
        fill: #8787de;
      }
    </style>
  </defs>
  <path class="cls-1" d="M0,34.79h34.79V0H0v34.79ZM33.62,33.59H1.17V1.2h32.45v32.39Z"/>
  <polygon class="cls-1" points="1.05 15.73 1.05 15.73 4.13 13.93 1.05 15.73"/>
  <polygon class="cls-1" points="30.08 13.77 30.06 13.81 30.05 13.82 30.09 13.82 30.09 13.82 33.62 11.76 33.62 11.76 30.09 13.82 30.08 13.77"/>
  <polygon class="cls-1" points="4.15 13.83 4.09 13.79 4.14 13.88 4.13 13.93 4.16 13.91 4.3 13.83 4.15 13.83"/>
  <polygon class="cls-1" points="17.17 5.08 25.85 0 8.47 0 17.12 5.05 17.17 5.08"/>
  <path class="cls-1" d="M21.49,6.28l7.78,4.54,4.35-7.63v-.33h-6.31s-5.82,3.41-5.82,3.41ZM29.44,6.32c0,.63-.5,1.14-1.13,1.14-.62,0-1.13-.51-1.13-1.14s.5-1.14,1.13-1.14c.62,0,1.13.51,1.13,1.14"/>
  <path class="cls-1" d="M12.86,6.29l-5.84-3.41H1.04v1.22l3.9,6.83,7.91-4.64ZM5.42,5.88c.31-.55,1-.73,1.54-.42.54.32.72,1.01.41,1.56-.31.55-1,.73-1.54.42-.54-.31-.72-1.01-.41-1.56"/>
  <polygon class="cls-1" points="1.04 8.46 1.05 12.01 4.09 13.79 1.04 8.46"/>
  <polygon class="cls-1" points="30.09 13.82 33.62 11.76 33.62 7.56 30.08 13.77 30.09 13.82"/>
  <polygon class="cls-1" points="9.69 11.76 24.67 11.75 17.17 7.38 9.69 11.76"/>
  <polygon class="cls-1" points="33.62 15.89 33.62 11.76 30.09 13.82 33.62 15.89"/>
  <path class="cls-1" d="M17.12,13.83H4.3s-.14.08-.14.08l11.56,20.25h2.73s11.6-20.34,11.6-20.34h-12.93ZM25.06,16.74l-7.98,14-7.99-13.99h15.97Z"/>
  <polygon class="cls-1" points="4.14 13.88 4.09 13.79 1.05 12.02 1.05 15.73 4.13 13.93 4.14 13.88"/>
  <polygon class="cls-1" points="20.08 19.65 14.08 19.65 17.08 24.91 20.08 19.65"/>
  <polygon class="cls-1" points="22.07 33.64 33.63 33.64 33.63 30.72 27.06 30.73 32.17 21.77 33.62 22.61 33.62 19.25 31.11 17.79 22.07 33.64"/>
  <polygon class="cls-1" points="3.11 17.89 1.05 19.1 1.05 22.47 2.06 21.88 7.11 30.74 1.05 30.74 1.05 33.66 12.1 33.65 3.11 17.89"/>
  <path class="cls-1" d="M2.05,27.82c.4-.7.16-1.6-.53-2-.15-.09-.31-.14-.47-.17v2.87c.4-.08.78-.32,1-.7"/>
  <path class="cls-1" d="M32.21,27.03c0,.8.63,1.44,1.41,1.46v-2.92c-.78.02-1.41.66-1.41,1.46"/>
</svg>