<?xml version="1.0" encoding="UTF-8"?>
<svg id="Layer_1" data-name="Layer 1" xmlns="http://www.w3.org/2000/svg" xmlns:xlink="http://www.w3.org/1999/xlink" viewBox="0 0 34.79 34.79">
  <defs>
    <style>
      .cls-1 {
        fill: #2bb673;
      }

      .cls-2 {
        fill: none;
      }

      .cls-3 {
        clip-path: url(#clippath);
      }
    </style>
    <clipPath id="clippath">
      <rect class="cls-2" x="1.17" y=".64" width="32.95" height="32.95"/>
    </clipPath>
  </defs>
  <path class="cls-1" d="M0,34.79h34.79V0H0v34.79ZM33.62,33.59H1.17V1.2h32.45v32.39Z"/>
  <g class="cls-3">
    <polygon class="cls-1" points="-9.55 -2.15 -4.11 1.96 1.33 -2.15 6.76 1.96 12.2 -2.15 17.64 1.96 23.08 -2.15 28.51 1.96 33.95 -2.15 39.38 1.96 44.82 -2.15 50.26 1.96 50.35 1.89 50.35 -.13 50.26 -.06 44.82 -4.17 39.38 -.06 33.95 -4.17 28.51 -.06 23.08 -4.17 17.64 -.06 12.2 -4.17 6.76 -.06 1.33 -4.17 -4.11 -.06 -9.55 -4.17 -14.98 -.06 -15.63 -.55 -15.63 1.46 -14.98 1.96 -9.55 -2.15"/>
    <polygon class="cls-1" points="-9.55 1.7 -4.11 5.81 1.33 1.7 6.76 5.81 12.2 1.7 17.64 5.81 23.08 1.7 28.51 5.81 33.95 1.7 39.38 5.81 44.82 1.7 50.26 5.81 50.35 5.74 50.35 3.73 50.26 3.8 44.82 -.31 39.38 3.8 33.95 -.31 28.51 3.8 23.08 -.31 17.64 3.8 12.2 -.31 6.76 3.8 1.33 -.31 -4.11 3.8 -9.55 -.31 -14.98 3.8 -15.63 3.3 -15.63 5.32 -14.98 5.81 -9.55 1.7"/>
    <polygon class="cls-1" points="-9.55 5.43 -4.11 9.54 1.33 5.43 6.76 9.54 12.2 5.43 17.64 9.54 23.08 5.43 28.51 9.54 33.95 5.43 39.38 9.54 44.82 5.43 50.26 9.54 50.35 9.47 50.35 7.45 50.26 7.52 44.82 3.42 39.38 7.52 33.95 3.42 28.51 7.52 23.08 3.42 17.64 7.52 12.2 3.42 6.76 7.52 1.33 3.42 -4.11 7.52 -9.55 3.42 -14.98 7.52 -15.63 7.03 -15.63 9.04 -14.98 9.54 -9.55 5.43"/>
    <polygon class="cls-1" points="-9.55 9.15 -4.11 13.26 1.33 9.15 6.76 13.26 12.2 9.15 17.64 13.26 23.08 9.15 28.51 13.26 33.95 9.15 39.38 13.26 44.82 9.15 50.26 13.26 50.35 13.19 50.35 11.18 50.26 11.25 44.82 7.14 39.38 11.25 33.95 7.14 28.51 11.25 23.08 7.14 17.64 11.25 12.2 7.14 6.76 11.25 1.33 7.14 -4.11 11.25 -9.55 7.14 -14.98 11.25 -15.63 10.76 -15.63 12.77 -14.98 13.26 -9.55 9.15"/>
    <polygon class="cls-1" points="-9.55 13.01 -4.11 17.12 1.33 13.01 6.76 17.12 12.2 13.01 17.64 17.12 23.08 13.01 28.51 17.12 33.95 13.01 39.38 17.12 44.82 13.01 50.26 17.12 50.35 17.05 50.35 15.04 50.26 15.11 44.82 11 39.38 15.11 33.95 11 28.51 15.11 23.08 11 17.64 15.11 12.2 11 6.76 15.11 1.33 11 -4.11 15.11 -9.55 11 -14.98 15.11 -15.63 14.61 -15.63 16.63 -14.98 17.12 -9.55 13.01"/>
    <polygon class="cls-1" points="-9.55 16.74 -4.11 20.85 1.33 16.74 6.76 20.85 12.2 16.74 17.64 20.85 23.08 16.74 28.51 20.85 33.95 16.74 39.38 20.85 44.82 16.74 50.26 20.85 50.35 20.78 50.35 18.76 50.26 18.83 44.82 14.72 39.38 18.83 33.95 14.72 28.51 18.83 23.08 14.72 17.64 18.83 12.2 14.72 6.76 18.83 1.33 14.72 -4.11 18.83 -9.55 14.72 -14.98 18.83 -15.63 18.34 -15.63 20.35 -14.98 20.85 -9.55 16.74"/>
    <polygon class="cls-1" points="-9.55 20.46 -4.11 24.57 1.33 20.46 6.76 24.57 12.2 20.46 17.64 24.57 23.08 20.46 28.51 24.57 33.95 20.46 39.38 24.57 44.82 20.46 50.26 24.57 50.35 24.5 50.35 22.49 50.26 22.56 44.82 18.45 39.38 22.56 33.95 18.45 28.51 22.56 23.08 18.45 17.64 22.56 12.2 18.45 6.76 22.56 1.33 18.45 -4.11 22.56 -9.55 18.45 -14.98 22.56 -15.63 22.07 -15.63 24.08 -14.98 24.57 -9.55 20.46"/>
    <polygon class="cls-1" points="-9.55 24.32 -4.11 28.43 1.33 24.32 6.76 28.43 12.2 24.32 17.64 28.43 23.08 24.32 28.51 28.43 33.95 24.32 39.38 28.43 44.82 24.32 50.26 28.43 50.35 28.36 50.35 26.34 50.26 26.41 44.82 22.31 39.38 26.41 33.95 22.31 28.51 26.41 23.08 22.31 17.64 26.41 12.2 22.31 6.76 26.41 1.33 22.31 -4.11 26.41 -9.55 22.31 -14.98 26.41 -15.63 25.92 -15.63 27.93 -14.98 28.43 -9.55 24.32"/>
    <polygon class="cls-1" points="-9.55 28.04 -4.11 32.15 1.33 28.04 6.76 32.15 12.2 28.04 17.64 32.15 23.08 28.04 28.51 32.15 33.95 28.04 39.38 32.15 44.82 28.04 50.26 32.15 50.35 32.08 50.35 30.07 50.26 30.14 44.82 26.03 39.38 30.14 33.95 26.03 28.51 30.14 23.08 26.03 17.64 30.14 12.2 26.03 6.76 30.14 1.33 26.03 -4.11 30.14 -9.55 26.03 -14.98 30.14 -15.63 29.65 -15.63 31.66 -14.98 32.15 -9.55 28.04"/>
    <polygon class="cls-1" points="-9.55 31.77 -4.11 35.88 1.33 31.77 6.76 35.88 12.2 31.77 17.64 35.88 23.08 31.77 28.51 35.88 33.95 31.77 39.38 35.88 44.82 31.77 50.26 35.88 50.35 35.81 50.35 33.8 50.26 33.87 44.82 29.76 39.38 33.87 33.95 29.76 28.51 33.87 23.08 29.76 17.64 33.87 12.2 29.76 6.76 33.87 1.33 29.76 -4.11 33.87 -9.55 29.76 -14.98 33.87 -15.63 33.37 -15.63 35.39 -14.98 35.88 -9.55 31.77"/>
    <polygon class="cls-1" points="-9.55 35.63 -4.11 39.74 1.33 35.63 6.76 39.74 12.2 35.63 17.64 39.74 23.08 35.63 28.51 39.74 33.95 35.63 39.38 39.74 44.82 35.63 50.26 39.74 50.35 39.67 50.35 37.65 50.26 37.72 44.82 33.61 39.38 37.72 33.95 33.61 28.51 37.72 23.08 33.61 17.64 37.72 12.2 33.61 6.76 37.72 1.33 33.61 -4.11 37.72 -9.55 33.61 -14.98 37.72 -15.63 37.23 -15.63 39.24 -14.98 39.74 -9.55 35.63"/>
  </g>
</svg>