<?xml version="1.0" encoding="UTF-8"?>
<svg id="Layer_1" xmlns="http://www.w3.org/2000/svg" version="1.1" viewBox="0 0 691.1 309.5">
  <!-- Generator: Adobe Illustrator 30.1.0, SVG Export Plug-In . SVG Version: 2.1.1 Build 136)  -->
  <defs>
    <style>
      .st0 {
        fill: #28b473;
      }
    </style>
  </defs>
  <polygon class="st0" points="11.3 308.7 19.5 308.7 19.5 277.4 30.7 277.4 30.7 270.2 0 270.2 0 277.4 11.3 277.4 11.3 308.7"/>
  <path class="st0" d="M58.5,294.1c1.1-.3,2.1-.7,3.1-1.3,1-.6,1.9-1.3,2.7-2.2.8-.9,1.5-2.1,1.9-3.4.5-1.4.7-2.9.7-4.5,0-3.6-1.2-6.6-3.5-8.9-2.3-2.3-5.5-3.5-9.4-3.5h-18v38.5h8.2v-13.7h6l7.6,13.7h9.4l-8.7-14.7ZM56.9,286.4c-1.1.9-2.5,1.4-4.2,1.4h-8.6v-10.4h8.6c1.7,0,3.1.5,4.2,1.4,1.1.9,1.6,2.2,1.6,3.8s-.5,2.9-1.6,3.8"/>
  <path class="st0" d="M109,308.7l-14.8-38.5h-10.3l-14.9,38.5h9.4l2.4-6.5h16.5l2.4,6.5h9.4ZM83,295l6-16.6,6,16.6h-12Z"/>
  <rect class="st0" x="112.6" y="270.2" width="8.2" height="38.5"/>
  <polygon class="st0" points="136.6 283.6 155 308.7 162.9 308.7 162.9 270.2 154.7 270.2 154.7 294.4 136.8 270.2 128.4 270.2 128.4 308.7 136.6 308.7 136.6 283.6"/>
  <rect class="st0" x="170.5" y="270.2" width="8.2" height="38.5"/>
  <polygon class="st0" points="194.5 283.6 212.9 308.7 220.8 308.7 220.8 270.2 212.6 270.2 212.6 294.4 194.7 270.2 186.3 270.2 186.3 308.7 194.5 308.7 194.5 283.6"/>
  <path class="st0" d="M232.6,304.1c1.9,1.7,4,3,6.5,4,2.5,1,5.2,1.4,8,1.4,6.6,0,12.1-2.4,16.4-7.3v-14.8h-18.4v7.2h10.1v4.6c-.9.8-2,1.5-3.5,2.1-1.5.6-3,.9-4.6.9-3.5,0-6.4-1.2-8.7-3.6-2.3-2.4-3.4-5.4-3.4-9.1s1.1-6.7,3.4-9.1c2.3-2.4,5.2-3.6,8.7-3.6s3.7.5,5.3,1.4c1.6.9,2.9,2.2,3.8,3.6l6.8-3.7c-1.6-2.6-3.7-4.6-6.4-6.2-2.6-1.6-5.8-2.4-9.6-2.4s-7.2.8-10.3,2.4c-3.1,1.6-5.6,3.9-7.4,7-1.9,3.1-2.8,6.6-2.8,10.5s.5,5.7,1.6,8.2c1.1,2.5,2.5,4.6,4.4,6.3"/>
  <path class="st0" d="M315.7,291.7l-5.9-2.7c-.8,2.6-2,5.1-3.5,7.4-.2-.2-.6-.8-1.4-1.7-.8-.9-1.4-1.7-1.8-2.2-1.2-1.3-2.3-2.7-3.3-4.2,1-.4,1.7-.8,2.4-1.1.6-.3,1.3-.7,2.2-1.2.8-.5,1.5-1,2-1.5.5-.5,1-1.1,1.5-1.8.5-.7.8-1.4,1.1-2.2.2-.8.4-1.7.4-2.7,0-2.5-1-4.5-2.9-5.9-1.9-1.5-4.3-2.2-7.2-2.2s-5.8.9-7.9,2.7c-2.1,1.8-3.1,4-3.1,6.6s.8,5.1,2.5,8.3c-1.2.6-2.3,1.2-3.2,1.9-.9.6-1.8,1.4-2.6,2.3-.8.9-1.4,1.9-1.9,3.1-.4,1.2-.6,2.5-.6,3.9,0,3.6,1.2,6.3,3.6,8.3,2.4,1.9,5.4,2.9,9.1,2.9s7.4-1.2,10.5-3.6c1,1,1.9,2,2.9,2.9h9.4c-2.7-2.7-5.2-5.2-7.5-7.7,2-2.7,3.8-5.8,5.4-9.3M296.5,276.1c.8-.8,1.7-1.2,2.9-1.2s1.8.3,2.4.9c.7.6,1,1.4,1,2.4s-.5,2.4-1.5,3.3c-1,.9-2.4,1.8-4.3,2.7-1.1-2.1-1.7-3.8-1.7-5.2s.4-2.2,1.2-2.9M296.1,303.7c-1.7,0-3.1-.6-4.2-1.7-1.2-1.1-1.7-2.6-1.7-4.4s1.1-4.3,3.3-5.9c1.2,1.7,2.5,3.4,3.9,5.1.8,1,2.3,2.7,4.3,4.9-1.8,1.3-3.6,2-5.5,2"/>
  <path class="st0" d="M355.5,276.9c1.9,0,3.7.5,5.4,1.6,1.6,1.1,2.9,2.4,3.7,4l7-3.5c-.7-1.3-1.6-2.4-2.5-3.5-.9-1.1-2.1-2.1-3.3-3-1.3-.9-2.8-1.6-4.6-2.2-1.8-.5-3.7-.8-5.7-.8s-5.5.5-8.1,1.5c-2.5,1-4.7,2.3-6.5,4-1.8,1.7-3.3,3.8-4.3,6.3-1.1,2.5-1.6,5.2-1.6,8.1s.5,5.6,1.6,8.1c1.1,2.5,2.5,4.6,4.3,6.3,1.8,1.7,4,3.1,6.5,4,2.5,1,5.2,1.5,8.1,1.5,7.1,0,12.5-3.2,16.1-9.5l-7-3.4c-.8,1.6-2.1,3-3.7,4-1.6,1.1-3.4,1.6-5.4,1.6-3.5,0-6.4-1.2-8.7-3.6-2.3-2.4-3.4-5.4-3.4-9.1s1.1-6.7,3.4-9.1c2.3-2.4,5.2-3.6,8.7-3.6"/>
  <path class="st0" d="M405.1,272.1c-3.1-1.7-6.5-2.5-10.4-2.5s-5.5.5-8,1.5c-2.5,1-4.6,2.4-6.4,4.1-1.8,1.7-3.2,3.8-4.2,6.3-1,2.5-1.5,5.2-1.5,8s.5,5.5,1.5,8c1,2.5,2.4,4.6,4.2,6.3,1.8,1.7,3.9,3.1,6.4,4.1,2.5,1,5.2,1.5,8,1.5s7.3-.9,10.4-2.5c3.1-1.7,5.5-4.1,7.2-7.1,1.7-3.1,2.6-6.5,2.6-10.3s-.9-7.2-2.6-10.3c-1.7-3-4.1-5.4-7.2-7.1M403.2,298.6c-2.2,2.4-5,3.6-8.5,3.6s-6.3-1.2-8.4-3.6c-2.1-2.4-3.2-5.4-3.2-9.1s1.1-6.7,3.2-9.1c2.1-2.4,5-3.6,8.4-3.6s6.3,1.2,8.5,3.6c2.2,2.4,3.2,5.4,3.2,9.1s-1.1,6.7-3.2,9.1"/>
  <polygon class="st0" points="428.8 283.6 447.2 308.7 455.1 308.7 455.1 270.2 446.9 270.2 446.9 294.4 429.1 270.2 420.6 270.2 420.6 308.7 428.8 308.7 428.8 283.6"/>
  <path class="st0" d="M476.8,302.3c-2.5,0-4.8-.5-6.9-1.5s-3.9-2.2-5.4-3.8l-4.5,6.2c4,4.1,9.5,6.1,16.3,6.1s8.8-1.1,11.5-3.4c2.6-2.3,3.9-5.3,3.9-9s-.3-3.2-.9-4.6c-.6-1.3-1.5-2.4-2.5-3.2-1-.8-2.2-1.5-3.6-2.1-1.3-.6-2.7-1.1-4-1.4-1.4-.3-2.7-.7-4-1-1.3-.3-2.5-.7-3.6-1-1-.3-1.9-.7-2.5-1.2-.6-.5-.9-1.2-.9-1.9,0-1.2.5-2.1,1.4-2.8,1-.7,2.3-1.1,4.1-1.1s4,.4,6,1.1c2,.7,3.7,1.8,5.2,3.2l4.6-6c-3.9-3.6-8.9-5.4-15-5.4s-8,1.1-10.6,3.4c-2.7,2.2-4,5-4,8.3s.3,2.9.8,4.1c.5,1.2,1.2,2.2,2,3,.9.8,1.8,1.5,2.9,2.1,1.1.6,2.3,1.1,3.5,1.4,1.2.4,2.4.7,3.7,1,1.2.3,2.4.6,3.5.9,1.1.3,2.1.6,2.9.9.9.3,1.5.8,2,1.3.5.5.8,1.2.8,1.9,0,1.2-.6,2.2-1.7,3-1.2.8-2.8,1.3-4.9,1.3"/>
  <path class="st0" d="M501.6,305c1.4,1.4,3.2,2.5,5.5,3.3,2.2.8,4.8,1.2,7.7,1.2,5.7,0,10-1.4,13-4.3,2.9-2.9,4.4-6.8,4.4-11.8v-23.1h-8.4v22.9c0,2.8-.8,5-2.3,6.6-1.6,1.6-3.8,2.5-6.7,2.5s-5.2-.8-6.7-2.5c-1.6-1.6-2.4-3.9-2.4-6.6v-22.9h-8.3v23.2c0,2.4.4,4.6,1.1,6.5.7,2,1.8,3.6,3.2,5.1"/>
  <polygon class="st0" points="564.2 301.5 547.9 301.5 547.9 270.2 539.7 270.2 539.7 308.7 564.2 308.7 564.2 301.5"/>
  <polygon class="st0" points="573 308.7 581.3 308.7 581.3 277.4 592.5 277.4 592.5 270.2 561.7 270.2 561.7 277.4 573 277.4 573 308.7"/>
  <rect class="st0" x="597.7" y="270.2" width="8.2" height="38.5"/>
  <polygon class="st0" points="621.7 283.6 640.1 308.7 648 308.7 648 270.2 639.8 270.2 639.8 294.4 622 270.2 613.5 270.2 613.5 308.7 621.7 308.7 621.7 283.6"/>
  <path class="st0" d="M672.3,287.4v7.2h10.2v4.6c-.9.8-2,1.5-3.5,2.1-1.5.6-3,.9-4.6.9-3.5,0-6.4-1.2-8.7-3.6-2.3-2.4-3.4-5.4-3.4-9.1s1.1-6.7,3.4-9.1c2.3-2.4,5.2-3.6,8.7-3.6s3.7.5,5.3,1.4c1.6.9,2.9,2.2,3.8,3.6l6.8-3.7c-1.6-2.6-3.7-4.6-6.4-6.2-2.6-1.6-5.8-2.4-9.6-2.4s-7.2.8-10.3,2.4c-3.1,1.6-5.6,3.9-7.4,7-1.9,3.1-2.8,6.6-2.8,10.5s.5,5.7,1.6,8.2c1.1,2.5,2.5,4.6,4.4,6.3,1.9,1.7,4,3,6.5,4,2.5,1,5.2,1.4,8,1.4,6.6,0,12.1-2.4,16.4-7.3v-14.8h-18.4Z"/>
  <path class="st0" d="M221.8,43.9c-43.6,0-59.1,19.6-59.6,47.7h33.4c1.7-12.1,8.3-20.1,24.6-20.1s22.9,5.2,22.9,14.1-5,13-22.9,15.5c-36.2,5-62.4,9.4-62.4,48.6s14.4,37.3,45.3,37.3,32.6-6.3,41.1-15.7c.3,4.1,1.1,8.8,2.2,12.1,18.4,0,33.4-14.9,33.4-33.4v-52.4c0-34.2-14.9-53.5-58-53.5M243.6,131.6c-.3,16-14.1,29.5-32.6,29.5s-17.4-5-17.4-15.2,6.6-17.4,27-21.2c13.2-2.5,19.6-4.4,23.2-8l-.3,14.9Z"/>
  <path class="st0" d="M494.4,43.9c-43.6,0-59.1,19.6-59.6,47.7h33.4c1.7-12.1,8.3-20.1,24.6-20.1s22.9,5.2,22.9,14.1-5,13-22.9,15.5c-36.2,5-62.4,9.4-62.4,48.6s14.4,37.3,45.3,37.3,32.6-6.3,41.1-15.7c.3,4.1,1.1,8.8,2.2,12.1,18.4,0,33.4-14.9,33.4-33.4v-52.4c0-34.2-14.9-53.5-58-53.5M516.2,131.6c-.3,16-14.1,29.5-32.6,29.5s-17.4-5-17.4-15.2,6.6-17.4,27-21.2c13.2-2.5,19.6-4.4,23.2-8l-.3,14.9Z"/>
  <path class="st0" d="M122.1,0c-9.1,0-17.7,3.7-23.9,10.3l-60.4,64.2V15.3c0-8.5-6.9-15.3-15.3-15.3H0v183.2h37.8v-62.4L157.6,0h-35.5Z"/>
  <path class="st0" d="M62.5,107.2l39.3,59.7c6.7,10.2,18.1,16.4,30.4,16.4h27l-69.4-104.1-27.3,28.1Z"/>
  <path class="st0" d="M582.4,47.5h-14.4v114.4c0,11.8,9.6,21.4,21.4,21.4h14.5s0-92.7,0-118.5-10.5-17.2-21.5-17.2"/>
  <path class="st0" d="M646.2,43.9c-15,0-26.2,4-34.4,11.4v26c4.6-4.6,11.2-7,20.1-7,17.1,0,23.2,5.8,23.2,26.8v65c0,9.5,7.7,17.3,17.3,17.3h18.9v-94.1c0-29.5-19-45.3-45-45.3"/>
  <path class="st0" d="M345.2,184.6c11.3,0,21.7-3.3,28.9-9.2v-26.9c-4.9,4.4-11.7,7.1-19.8,7.1-15.2,0-22.9-8.6-22.9-25.4V47.5h-12.3c-13,0-23.6,10.6-23.6,23.6v64.4c0,29.8,21.2,49.1,49.7,49.1"/>
  <path class="st0" d="M381.9,71.1v59.2c0,.1,0,.2,0,.3v34.8s0,0,0,0v22.1c0,17.9-11.9,29.3-24.8,29.3-18.8,0-28.2-9.9-28.2-25.9-21.4,0-33.8,26.2-18.6,41.3,10,10,25.1,15.5,45.1,15.5,34.8,0,62.4-22.4,62.4-60.7V47.5h-12.3c-13,0-23.6,10.6-23.6,23.6"/>
</svg>